<?xml version="1.0" encoding="utf-8"?>
<!-- Generator: Adobe Illustrator 25.0.1, SVG Export Plug-In . SVG Version: 6.00 Build 0)  -->
<svg version="1.1" id="Layer_1" xmlns="http://www.w3.org/2000/svg" xmlns:xlink="http://www.w3.org/1999/xlink" x="0px" y="0px"
	 viewBox="0 0 150 150" style="enable-background:new 0 0 150 150;" xml:space="preserve">
<style type="text/css">
	.st0{fill:#42E8E0;}
	.st1{fill:#0082FA;}
	.st2{opacity:0.7;fill:url(#SVGID_1_);}
	.st3{opacity:0.3;fill:url(#SVGID_2_);}
	.st4{opacity:0.4;fill:#42E8E0;}
	.st5{fill:url(#XMLID_8_);}
	.st6{fill:url(#XMLID_9_);}
	.st7{fill:url(#XMLID_10_);}
	.st8{fill:url(#XMLID_11_);}
	.st9{fill:none;stroke:#00F2FE;stroke-linecap:round;stroke-miterlimit:10;}
	.st10{fill:none;stroke:#0082FA;stroke-miterlimit:10;}
	.st11{opacity:0.6;}
	.st12{fill:url(#XMLID_12_);}
	.st13{fill:url(#XMLID_13_);}
	.st14{fill:url(#XMLID_14_);}
	.st15{fill:url(#XMLID_15_);}
	.st16{fill:url(#XMLID_16_);}
	.st17{fill:url(#XMLID_17_);}
	.st18{fill:url(#XMLID_18_);}
	.st19{fill:url(#XMLID_19_);}
	.st20{fill:url(#XMLID_20_);}
	.st21{fill:url(#XMLID_21_);}
	.st22{fill:url(#XMLID_22_);}
	.st23{fill:url(#XMLID_23_);}
	.st24{fill:url(#XMLID_24_);}
	.st25{fill:url(#XMLID_25_);}
	.st26{fill:url(#XMLID_26_);}
	.st27{fill:url(#XMLID_27_);}
	.st28{fill:url(#XMLID_28_);}
	.st29{fill:url(#XMLID_29_);}
	.st30{fill:url(#XMLID_30_);}
	.st31{fill:url(#XMLID_31_);}
	.st32{fill:url(#XMLID_32_);}
	.st33{fill:url(#XMLID_33_);}
	.st34{fill:url(#XMLID_34_);}
	.st35{fill:url(#XMLID_35_);}
	.st36{fill:url(#XMLID_36_);}
	.st37{fill:url(#XMLID_37_);}
	.st38{fill:url(#XMLID_38_);}
	.st39{fill:url(#XMLID_39_);}
	.st40{fill:url(#XMLID_40_);}
	.st41{fill:url(#XMLID_41_);}
	.st42{fill:url(#XMLID_42_);}
	.st43{fill:url(#XMLID_43_);}
</style>
<g>
	<g>
		<g>
			<path class="st0" d="M18.53717,96.23398l-0.06924-0.12334c1.58564-0.88757,2.98078-2.84635,3.47167-4.87341l6.25987-25.86211
				c0.41625-1.72031,1.33728-3.15715,2.38632-4.12288l-0.9596-2.94924c-0.30699-0.94292-0.93607-1.42344-1.81727-1.38906
				c-1.74928,0.06736-4.21492,2.27779-4.95678,5.34217l-6.25987,25.86162c-0.49914,2.06332-1.92185,4.05788-3.53994,4.96387
				l-0.06924-0.12339c1.58612-0.88805,2.98102-2.84635,3.47167-4.87341l6.25987-25.8621
				c0.76775-3.17244,3.25132-5.37939,5.08884-5.45022c0.94219-0.03722,1.63391,0.49205,1.95739,1.48675l0.94031,2.88917
				c0.85415-0.75193,1.7827-1.19268,2.58738-1.22354c0.94316-0.03269,1.63391,0.49186,1.95739,1.48675l0.92898,2.85653
				l0.13327-0.07676c1.47758-0.85367,2.8261-2.70416,3.35537-4.60504c0.84238-3.0248,3.19997-5.05282,4.90118-5.19714
				c0.87016-0.07464,1.56847,0.33549,1.95454,1.15363l1.3947,2.9544c0.72657-0.56456,1.47947-0.90005,2.13536-0.95584
				c0.87064-0.07367,1.5689,0.33549,1.95502,1.15363l0.6352,1.3462l0.67947-0.39224
				c1.57831-0.91114,2.99466-2.95064,3.44433-4.95957l6.25495-27.93675c0.70111-3.13218,3.22446-5.44786,5.05094-5.56724
				c0.93231-0.05931,1.63998,0.43062,1.98892,1.38482l1.07122,2.92735c0.80984-0.69263,1.67576-1.11076,2.42446-1.15975
				c0.9408-0.05887,1.63998,0.43134,1.98892,1.38482l9.06973,24.78196l4.10123-2.36776l5.6263,3.23386l-5.24395,3.02765
				c-0.85088,0.49137-1.68526,0.62768-2.35103,0.38708c-0.54103-0.19658-0.94784-0.63072-1.17623-1.25579l-1.03164-2.8181
				l-0.9257,0.53438c-0.85039,0.49065-1.68429,0.62768-2.35103,0.38708c-0.54103-0.19634-0.94783-0.63048-1.17671-1.25579
				l-9.01746-24.64093c-1.07922,0.97961-2.03555,2.4612-2.42494,4.19988l-6.25495,27.9367
				c-0.46471,2.07648-1.8759,4.10638-3.51212,5.05094l-1.4936,0.86259c-0.81365,0.4704-1.62021,0.6178-2.2719,0.41365
				c-0.50902-0.15912-0.91114-0.52546-1.16302-1.05941l-1.36833-2.90007l-0.68183,0.39344
				c-0.81408,0.47011-1.62257,0.61727-2.27142,0.41365c-0.50902-0.15892-0.91114-0.52527-1.16302-1.05946l-0.60034-1.27156
				c-1.08207,0.88969-2.0869,2.30344-2.5761,4.06024c-0.53819,1.9343-1.91313,3.81868-3.4208,4.68932l-1.30526,0.75338
				c-0.86495,0.49957-1.7111,0.63284-2.38256,0.37527c-0.55512-0.21283-0.96288-0.67758-1.17952-1.34383l-0.90217-2.77292
				l-1.02036,0.58906c-0.86543,0.49957-1.71062,0.6326-2.38255,0.37527c-0.55512-0.21307-0.96288-0.67758-1.17952-1.3436
				l-0.87296-2.68275c-1.01187,0.95353-1.90464,2.3503-2.30204,3.99245l-6.25987,25.86162
				C21.57774,93.33348,20.15502,95.32853,18.53717,96.23398z M36.21967,64.4056l0.91158,2.80165
				c0.20294,0.62435,0.58201,1.05801,1.09571,1.25531c0.63096,0.242,1.43376,0.11254,2.2611-0.36538l1.30521-0.75338
				c1.47754-0.85323,2.8261-2.70392,3.35489-4.60504c0.50053-1.79774,1.53689-3.24356,2.65189-4.15089l-1.40883-2.98478
				c-0.36399-0.77175-0.9907-1.14326-1.81472-1.07286c-1.65411,0.14031-3.9505,2.12783-4.7764,5.09424
				c-0.53867,1.93405-1.9136,3.81868-3.42128,4.68932L36.21967,64.4056z M30.75392,61.31065l0.89273,2.74442
				c0.20294,0.62387,0.58201,1.05801,1.09571,1.25531c0.63047,0.24224,1.43332,0.11205,2.2611-0.36562l1.04624-0.60435
				l-0.93843-2.88497c-0.30699-0.94292-0.9408-1.4246-1.81751-1.38906C32.51728,60.09627,31.5991,60.54878,30.75392,61.31065z
				 M52.70033,60.16951l1.37349,2.91087c0.23448,0.49721,0.60695,0.83766,1.07686,0.98457
				c0.61259,0.19094,1.37918,0.04894,2.15937-0.40096l1.4936-0.86259c1.57879-0.91182,2.99515-2.95112,3.44433-4.95962
				l6.25496-27.9367c0.40024-1.78714,1.39374-3.3085,2.5125-4.30769l-1.09002-2.97866
				c-0.33057-0.90242-0.96245-1.35117-1.84721-1.29205c-1.77609,0.11606-4.23397,2.38584-4.92144,5.45707l-6.25496,27.9367
				c-0.46519,2.07696-1.87638,4.10687-3.51212,5.05094L52.70033,60.16951z M47.97426,58.62553l0.61495,1.30242
				c0.23448,0.49721,0.60695,0.83766,1.07686,0.98458c0.61211,0.19142,1.3787,0.04874,2.15888-0.40097l0.69171-0.39952
				l-0.64036-1.35676c-0.36446-0.77151-0.99162-1.14113-1.8152-1.07262C49.42123,57.73705,48.68483,58.06805,47.97426,58.62553z
				 M84.66198,50.63971l1.03963,2.84143c0.21379,0.58433,0.59142,0.98949,1.09196,1.17103
				c0.62436,0.22744,1.41727,0.09393,2.23189-0.37623l5.03112-2.90474l-5.34284-3.07095L84.66198,50.63971z M71.17979,25.63528
				l9.03674,24.69344c0.21428,0.58457,0.59191,0.98954,1.09244,1.17127c0.62576,0.22647,1.41824,0.09369,2.23189-0.37647
				l0.94687-0.54687L75.41,25.77115c-0.33057-0.90266-0.97281-1.35068-1.84673-1.29205
				C72.82777,24.52713,71.97507,24.94453,71.17979,25.63528z"/>
			
				<rect x="71.80106" y="19.86917" transform="matrix(0.4984 -0.86695 0.86695 0.4984 16.06073 73.87544)" class="st1" width="0.14176" height="6.37844"/>
			<polygon class="st0" points="51.27221,57.99154 45.67695,54.76635 45.74759,54.64344 51.3428,57.86863 			"/>
			
				<rect x="31.45501" y="55.29135" transform="matrix(0.49774 -0.86733 0.86733 0.49774 -35.03728 56.80258)" class="st0" width="0.14176" height="6.72371"/>
			<path class="st1" d="M18.53717,96.23398l-0.06924-0.12334c1.58564-0.88757,2.98078-2.84635,3.47167-4.87341l6.25987-25.86211
				c0.41625-1.72031,1.33728-3.15715,2.38632-4.12288l-0.9596-2.94924c-0.30699-0.94292-0.93607-1.42344-1.81727-1.38906
				c-1.74928,0.06736-4.21492,2.27779-4.95678,5.34217l-6.25987,25.86162c-0.49914,2.06332-1.92185,4.05788-3.53994,4.96387
				l-0.06924-0.12339c1.58612-0.88805,2.98102-2.84635,3.47167-4.87341l6.25987-25.8621
				c0.76775-3.17244,3.25132-5.37939,5.08884-5.45022c0.94219-0.03722,1.63391,0.49205,1.95739,1.48675l0.94031,2.88917
				c0.85415-0.75193,1.7827-1.19268,2.58738-1.22354c0.94316-0.03269,1.63391,0.49186,1.95739,1.48675l0.92898,2.85653
				l0.13327-0.07676c1.47758-0.85367,2.8261-2.70416,3.35537-4.60504c0.84238-3.0248,3.19997-5.05282,4.90118-5.19714
				c0.87016-0.07464,1.56847,0.33549,1.95454,1.15363l1.3947,2.9544c0.72657-0.56456,1.47947-0.90005,2.13536-0.95584
				c0.87064-0.07367,1.5689,0.33549,1.95502,1.15363l0.6352,1.3462l0.67947-0.39224
				c1.57831-0.91114,2.99466-2.95064,3.44433-4.95957l6.25495-27.93675c0.70111-3.13218,3.22446-5.44786,5.05094-5.56724
				c0.93231-0.05931,1.63998,0.43062,1.98892,1.38482l1.07122,2.92735c0.80984-0.69263,1.67576-1.11076,2.42446-1.15975
				c0.9408-0.05887,1.63998,0.43134,1.98892,1.38482l9.06973,24.78196l4.10123-2.36776l5.6263,3.23386l-5.24395,3.02765
				c-0.85088,0.49137-1.68526,0.62768-2.35103,0.38708c-0.54103-0.19658-0.94784-0.63072-1.17623-1.25579l-1.03164-2.8181
				l-0.9257,0.53438c-0.85039,0.49065-1.68429,0.62768-2.35103,0.38708c-0.54103-0.19634-0.94783-0.63048-1.17671-1.25579
				l-9.01746-24.64093c-1.07922,0.97961-2.03555,2.4612-2.42494,4.19988l-6.25495,27.9367
				c-0.46471,2.07648-1.8759,4.10638-3.51212,5.05094l-1.4936,0.86259c-0.81365,0.4704-1.62021,0.6178-2.2719,0.41365
				c-0.50902-0.15912-0.91114-0.52546-1.16302-1.05941l-1.36833-2.90007l-0.68183,0.39344
				c-0.81408,0.47011-1.62257,0.61727-2.27142,0.41365c-0.50902-0.15892-0.91114-0.52527-1.16302-1.05946l-0.60034-1.27156
				c-1.08207,0.88969-2.0869,2.30344-2.5761,4.06024c-0.53819,1.9343-1.91313,3.81868-3.4208,4.68932l-1.30526,0.75338
				c-0.86495,0.49957-1.7111,0.63284-2.38256,0.37527c-0.55512-0.21283-0.96288-0.67758-1.17952-1.34383l-0.90217-2.77292
				l-1.02036,0.58906c-0.86543,0.49957-1.71062,0.6326-2.38255,0.37527c-0.55512-0.21307-0.96288-0.67758-1.17952-1.3436
				l-0.87296-2.68275c-1.01187,0.95353-1.90464,2.3503-2.30204,3.99245l-6.25987,25.86162
				C21.57774,93.33348,20.15502,95.32853,18.53717,96.23398z M36.21967,64.4056l0.91158,2.80165
				c0.20294,0.62435,0.58201,1.05801,1.09571,1.25531c0.63096,0.242,1.43376,0.11254,2.2611-0.36538l1.30521-0.75338
				c1.47754-0.85323,2.8261-2.70392,3.35489-4.60504c0.50053-1.79774,1.53689-3.24356,2.65189-4.15089l-1.40883-2.98478
				c-0.36399-0.77175-0.9907-1.14326-1.81472-1.07286c-1.65411,0.14031-3.9505,2.12783-4.7764,5.09424
				c-0.53867,1.93405-1.9136,3.81868-3.42128,4.68932L36.21967,64.4056z M30.75392,61.31065l0.89273,2.74442
				c0.20294,0.62387,0.58201,1.05801,1.09571,1.25531c0.63047,0.24224,1.43332,0.11205,2.2611-0.36562l1.04624-0.60435
				l-0.93843-2.88497c-0.30699-0.94292-0.9408-1.4246-1.81751-1.38906C32.51728,60.09627,31.5991,60.54878,30.75392,61.31065z
				 M52.70033,60.16951l1.37349,2.91087c0.23448,0.49721,0.60695,0.83766,1.07686,0.98457
				c0.61259,0.19094,1.37918,0.04894,2.15937-0.40096l1.4936-0.86259c1.57879-0.91182,2.99515-2.95112,3.44433-4.95962
				l6.25496-27.9367c0.40024-1.78714,1.39374-3.3085,2.5125-4.30769l-1.09002-2.97866
				c-0.33057-0.90242-0.96245-1.35117-1.84721-1.29205c-1.77609,0.11606-4.23397,2.38584-4.92144,5.45707l-6.25496,27.9367
				c-0.46519,2.07696-1.87638,4.10687-3.51212,5.05094L52.70033,60.16951z M47.97426,58.62553l0.61495,1.30242
				c0.23448,0.49721,0.60695,0.83766,1.07686,0.98458c0.61211,0.19142,1.3787,0.04874,2.15888-0.40097l0.69171-0.39952
				l-0.64036-1.35676c-0.36446-0.77151-0.99162-1.14113-1.8152-1.07262C49.42123,57.73705,48.68483,58.06805,47.97426,58.62553z
				 M84.66198,50.63971l1.03963,2.84143c0.21379,0.58433,0.59142,0.98949,1.09196,1.17103
				c0.62436,0.22744,1.41727,0.09393,2.23189-0.37623l5.03112-2.90474l-5.34284-3.07095L84.66198,50.63971z M71.17979,25.63528
				l9.03674,24.69344c0.21428,0.58457,0.59191,0.98954,1.09244,1.17127c0.62576,0.22647,1.41824,0.09369,2.23189-0.37647
				l0.94687-0.54687L75.41,25.77115c-0.33057-0.90266-0.97281-1.35068-1.84673-1.29205
				C72.82777,24.52713,71.97507,24.94453,71.17979,25.63528z"/>
		</g>
		
			<linearGradient id="SVGID_1_" gradientUnits="userSpaceOnUse" x1="174.8161" y1="57.13558" x2="250.5118" y2="57.13558" gradientTransform="matrix(-1 0 0 1 263.5296 0)">
			<stop  offset="0" style="stop-color:#00FFFB"/>
			<stop  offset="0.90514" style="stop-color:#3238C2"/>
		</linearGradient>
		<path class="st2" d="M88.7135,48.21867l-5.13735,2.96603c-1.54321,0.89099-2.91757,0.55733-3.42586-0.83163l-10.1586-27.75859
			c-1.16022-3.17032-5.90157-0.3041-6.90413,4.17365l-6.25495,27.93685c-0.45719,2.04177-1.87219,4.07799-3.47832,5.00528
			l-1.49384,0.86249c-1.45179,0.83819-2.76381,0.59644-3.33536-0.61456l-2.06963-4.38532
			c-1.28284-2.71824-5.55789-0.15429-6.72361,4.03252l0,0c-0.53771,1.93116-1.88516,3.77929-3.38826,4.64708l-1.30497,0.75343
			c-1.58246,0.9136-2.98237,0.53767-3.45952-0.92898l-1.8854-5.79579c-1.06423-3.27133-5.81975-0.54725-6.91031,3.95836
			l-6.25982,25.86196c-0.49195,2.03255-1.9137,4.02726-3.50576,4.91859L88.7135,48.21867z"/>
		
			<linearGradient id="SVGID_2_" gradientUnits="userSpaceOnUse" x1="207.18231" y1="60.35474" x2="207.18231" y2="136.05013" gradientTransform="matrix(-1 0 0 1 263.5296 0)">
			<stop  offset="0" style="stop-color:#00FFFB"/>
			<stop  offset="0.90514" style="stop-color:#3238C2"/>
		</linearGradient>
		<path class="st3" d="M94.19515,51.43784l-5.13735,2.96603c-1.54321,0.89099-2.91756,0.55738-3.4259-0.83163L75.47335,25.81363
			c-1.16022-3.17031-5.90162-0.3041-6.90418,4.17365l-6.25495,27.93685c-0.45714,2.04177-1.87214,4.07799-3.47828,5.00528
			l-1.49384,0.8625c-1.45179,0.83819-2.76385,0.59644-3.33536-0.61457l-2.06964-4.38532
			c-1.28289-2.71824-5.55794-0.15429-6.72366,4.03252l0,0c-0.53766,1.93121-1.88516,3.77929-3.38826,4.64708l-1.30492,0.75343
			c-1.58246,0.9136-2.98237,0.53771-3.45952-0.92898l-1.88544-5.79579c-1.06419-3.27128-5.81971-0.54725-6.91031,3.95841
			L22.00522,91.3206c-0.492,2.03255-1.91375,4.02731-3.50581,4.91859L94.19515,51.43784z"/>
	</g>
	<g>
		<path class="st4" d="M34.76479,54.07671c0,0.80304,0.65096,1.45406,1.45401,1.45406s1.45406-0.65102,1.45406-1.45406
			c0-0.80304-0.65101-1.45401-1.45406-1.45401S34.76479,53.27367,34.76479,54.07671z"/>
		<path class="st4" d="M35.58779,54.07671c0,0.34851,0.28255,0.63101,0.63101,0.63101c0.34851,0,0.631-0.2825,0.631-0.63101
			c0-0.34846-0.2825-0.63096-0.631-0.63096C35.87034,53.44575,35.58779,53.72825,35.58779,54.07671z"/>
	</g>
	<g>
		<path class="st4" d="M56.82118,28.67508c0,0.80304,0.65097,1.45406,1.45401,1.45406s1.45406-0.65102,1.45406-1.45406
			s-0.65102-1.45406-1.45406-1.45406S56.82118,27.87203,56.82118,28.67508z"/>
		<path class="st4" d="M57.64423,28.67508c0,0.34851,0.2825,0.63101,0.63096,0.63101c0.34851,0,0.63101-0.2825,0.63101-0.63101
			s-0.2825-0.63101-0.63101-0.63101C57.92673,28.04407,57.64423,28.32657,57.64423,28.67508z"/>
	</g>
	<g>
		<path class="st4" d="M15.52394,59.15885c0,0.80304,0.65097,1.45401,1.45401,1.45401s1.45406-0.65097,1.45406-1.45401
			c0-0.80304-0.65102-1.45406-1.45406-1.45406S15.52394,58.35581,15.52394,59.15885z"/>
		<path class="st4" d="M16.34699,59.15885c0,0.34846,0.2825,0.631,0.63096,0.631c0.34851,0,0.63101-0.28255,0.63101-0.631
			c0-0.34851-0.2825-0.63101-0.63101-0.63101C16.62949,58.52784,16.34699,58.81034,16.34699,59.15885z"/>
	</g>
</g>
<g id="XMLID_1_">
	<g>
		<g>
			<g>
				
					<linearGradient id="XMLID_8_" gradientUnits="userSpaceOnUse" x1="110.32978" y1="20.35991" x2="110.32978" y2="62.77954" gradientTransform="matrix(1 0 0 -1 0 104)">
					<stop  offset="0" style="stop-color:#FFFFFF"/>
					<stop  offset="1" style="stop-color:#1A1A1A"/>
				</linearGradient>
				<polygon id="XMLID_3_" class="st5" points="130.13463,54.00876 130.13463,80.04491 90.52494,57.15125 90.52494,31.1151 				"/>
			</g>
		</g>
	</g>
	
		<linearGradient id="XMLID_9_" gradientUnits="userSpaceOnUse" x1="110.32978" y1="20.35991" x2="110.32978" y2="62.77954" gradientTransform="matrix(1 0 0 -1 0 104)">
		<stop  offset="0" style="stop-color:#00FFFB"/>
		<stop  offset="1" style="stop-color:#3238C2"/>
	</linearGradient>
	<polygon id="XMLID_2_" class="st6" points="130.13463,54.00876 130.13463,80.04491 90.52494,57.15125 90.52494,31.1151 	"/>
</g>
<g id="XMLID_4_">
	<g>
		<g>
			<g>
				
					<linearGradient id="XMLID_10_" gradientUnits="userSpaceOnUse" x1="71.01542" y1="-7.40347" x2="71.01542" y2="35.01616" gradientTransform="matrix(1 0 0 -1 0 104)">
					<stop  offset="0" style="stop-color:#FFFFFF"/>
					<stop  offset="1" style="stop-color:#1A1A1A"/>
				</linearGradient>
				<polygon id="XMLID_6_" class="st7" points="90.82027,81.77214 90.82027,107.80829 51.21058,84.91463 51.21058,58.87848 				"/>
			</g>
		</g>
	</g>
	
		<linearGradient id="XMLID_11_" gradientUnits="userSpaceOnUse" x1="71.01542" y1="-7.40347" x2="71.01542" y2="35.01616" gradientTransform="matrix(1 0 0 -1 0 104)">
		<stop  offset="0" style="stop-color:#00FFFB"/>
		<stop  offset="1" style="stop-color:#3238C2"/>
	</linearGradient>
	<polygon id="XMLID_5_" class="st8" points="90.82027,81.77214 90.82027,107.80829 51.21058,84.91463 51.21058,58.87848 	"/>
</g>
<line class="st9" x1="93.9288" y1="37.48934" x2="120.18675" y2="52.66595"/>
<line class="st9" x1="93.9288" y1="42.80002" x2="120.18675" y2="57.97663"/>
<line class="st9" x1="93.9288" y1="48.17761" x2="112.19097" y2="58.73281"/>
<line class="st9" x1="59.72925" y1="73.47586" x2="77.20068" y2="83.57402"/>
<line class="st9" x1="54.58936" y1="76.57372" x2="80.84732" y2="91.75034"/>
<line class="st9" x1="54.58936" y1="81.95132" x2="72.85153" y2="92.50652"/>
<path class="st10" d="M47.06767,83.60902c-1.81874,5.28069-4.13109,14.76045,0,23.2782
	c8.67677,17.89029,40.11646,19.86171,60.90226,11.90977c4.94525-1.89189,27.96179-10.69724,30.85715-30.85715
	c1.4406-10.03067-2.7368-18.43848-5.14287-22.46616"/>
<g>
	<g id="XMLID_2173_" class="st11">
		<g id="XMLID_2176_">
			<g id="XMLID_2183_">
				<g>
					<g>
						<g>
							
								<linearGradient id="XMLID_12_" gradientUnits="userSpaceOnUse" x1="123.57388" y1="-10.3733" x2="123.57388" y2="0.79349" gradientTransform="matrix(1 0 0 -1 0 104)">
								<stop  offset="0" style="stop-color:#FFFFFF"/>
								<stop  offset="0.90514" style="stop-color:#1A1A1A"/>
							</linearGradient>
							<polygon id="XMLID_2185_" class="st12" points="133.05385,108.79564 123.59448,114.28679 114.09391,108.79564 
								123.59448,103.30448 							"/>
						</g>
					</g>
				</g>
				
					<linearGradient id="XMLID_13_" gradientUnits="userSpaceOnUse" x1="123.57388" y1="-10.3733" x2="123.57388" y2="0.79349" gradientTransform="matrix(1 0 0 -1 0 104)">
					<stop  offset="0" style="stop-color:#00FFFB"/>
					<stop  offset="0.90514" style="stop-color:#3238C2"/>
				</linearGradient>
				<polygon id="XMLID_2184_" class="st13" points="133.05385,108.79564 123.59448,114.28679 114.09391,108.79564 
					123.59448,103.30448 				"/>
			</g>
			<g id="XMLID_2180_">
				<g>
					<g>
						<g>
							
								<linearGradient id="XMLID_14_" gradientUnits="userSpaceOnUse" x1="128.32417" y1="-17.62152" x2="128.32417" y2="-7.65975" gradientTransform="matrix(1 0 0 -1 0 104)">
								<stop  offset="0" style="stop-color:#FFFFFF"/>
								<stop  offset="1" style="stop-color:#1A1A1A"/>
							</linearGradient>
							<polygon id="XMLID_2182_" class="st14" points="133.05385,108.79564 133.05385,115.04053 123.59448,120.53168 
								123.59448,114.28679 							"/>
						</g>
					</g>
				</g>
				
					<linearGradient id="XMLID_15_" gradientUnits="userSpaceOnUse" x1="128.32417" y1="-17.62152" x2="128.32417" y2="-7.65975" gradientTransform="matrix(1 0 0 -1 0 104)">
					<stop  offset="0" style="stop-color:#00FFFB"/>
					<stop  offset="1" style="stop-color:#3238C2"/>
				</linearGradient>
				<polygon id="XMLID_2181_" class="st15" points="133.05385,108.79564 133.05385,115.04053 123.59448,120.53168 
					123.59448,114.28679 				"/>
			</g>
			<g id="XMLID_2177_">
				<g>
					<g>
						<g>
							
								<linearGradient id="XMLID_16_" gradientUnits="userSpaceOnUse" x1="118.84419" y1="-17.39401" x2="118.84419" y2="-7.21946" gradientTransform="matrix(1 0 0 -1 0 104)">
								<stop  offset="0" style="stop-color:#FFFFFF"/>
								<stop  offset="1" style="stop-color:#1A1A1A"/>
							</linearGradient>
							<polygon id="XMLID_2179_" class="st16" points="123.59448,114.28679 123.59448,120.53168 114.09391,115.04053 
								114.09391,108.79564 							"/>
						</g>
					</g>
				</g>
				
					<linearGradient id="XMLID_17_" gradientUnits="userSpaceOnUse" x1="118.84419" y1="-17.39401" x2="118.84419" y2="-7.21946" gradientTransform="matrix(1 0 0 -1 0 104)">
					<stop  offset="0" style="stop-color:#00FFFB"/>
					<stop  offset="1" style="stop-color:#3238C2"/>
				</linearGradient>
				<polygon id="XMLID_2178_" class="st17" points="123.59448,114.28679 123.59448,120.53168 114.09391,115.04053 
					114.09391,108.79564 				"/>
			</g>
		</g>
		<g>
			<g>
				<g>
					
						<linearGradient id="XMLID_18_" gradientUnits="userSpaceOnUse" x1="123.57388" y1="-10.28678" x2="123.57388" y2="-4.79563" gradientTransform="matrix(1 0 0 -1 0 104)">
						<stop  offset="0" style="stop-color:#FFFFFF"/>
						<stop  offset="1" style="stop-color:#1A1A1A"/>
					</linearGradient>
					<polygon id="XMLID_2175_" class="st18" points="123.59448,114.12164 114.09391,108.79563 114.09391,108.79563 
						123.59448,114.28678 133.05385,108.79563 133.05385,108.79563 					"/>
				</g>
			</g>
		</g>
		
			<linearGradient id="XMLID_19_" gradientUnits="userSpaceOnUse" x1="123.57388" y1="-10.28678" x2="123.57388" y2="-4.79563" gradientTransform="matrix(1 0 0 -1 0 104)">
			<stop  offset="0" style="stop-color:#00FFFF"/>
			<stop  offset="1" style="stop-color:#45FFFF"/>
		</linearGradient>
		<polygon id="XMLID_2174_" class="st19" points="123.59448,114.12164 114.09391,108.79563 114.09391,108.79563 
			123.59448,114.28678 133.05385,108.79563 133.05385,108.79563 		"/>
	</g>
	<g id="XMLID_2082_">
		<g id="XMLID_2163_">
			<g id="XMLID_2170_">
				<g>
					<g>
						<g>
							
								<linearGradient id="XMLID_20_" gradientUnits="userSpaceOnUse" x1="123.57388" y1="-8.79229" x2="123.57388" y2="2.37453" gradientTransform="matrix(1 0 0 -1 0 104)">
								<stop  offset="0" style="stop-color:#FFFFFF"/>
								<stop  offset="0.90514" style="stop-color:#666666"/>
							</linearGradient>
							<polygon id="XMLID_2172_" class="st20" points="133.05385,107.21461 123.59448,112.70577 114.09391,107.21461 
								123.59448,101.72346 							"/>
						</g>
					</g>
				</g>
				
					<linearGradient id="XMLID_21_" gradientUnits="userSpaceOnUse" x1="123.57388" y1="-8.79229" x2="123.57388" y2="2.37453" gradientTransform="matrix(1 0 0 -1 0 104)">
					<stop  offset="0" style="stop-color:#00FFFB"/>
					<stop  offset="0.90514" style="stop-color:#3238C2"/>
				</linearGradient>
				<polygon id="XMLID_2171_" class="st21" points="133.05385,107.21461 123.59448,112.70577 114.09391,107.21461 
					123.59448,101.72346 				"/>
			</g>
			<g id="XMLID_2167_">
				<g>
					<g>
						<g>
							
								<linearGradient id="XMLID_22_" gradientUnits="userSpaceOnUse" x1="128.32417" y1="-10.00709" x2="128.32417" y2="-4.73144" gradientTransform="matrix(1 0 0 -1 0 104)">
								<stop  offset="0" style="stop-color:#FFFFFF"/>
								<stop  offset="1" style="stop-color:#4D4D4D"/>
							</linearGradient>
							<polygon id="XMLID_2169_" class="st22" points="133.05385,107.21461 133.05385,107.93878 123.59448,113.42994 
								123.59448,112.70577 							"/>
						</g>
					</g>
				</g>
				
					<linearGradient id="XMLID_23_" gradientUnits="userSpaceOnUse" x1="128.32417" y1="-10.00709" x2="128.32417" y2="-4.73144" gradientTransform="matrix(1 0 0 -1 0 104)">
					<stop  offset="0" style="stop-color:#00FFFB"/>
					<stop  offset="1" style="stop-color:#3238C2"/>
				</linearGradient>
				<polygon id="XMLID_2168_" class="st23" points="133.05385,107.21461 133.05385,107.93878 123.59448,113.42994 
					123.59448,112.70577 				"/>
			</g>
			<g id="XMLID_2164_">
				<g>
					<g>
						<g>
							
								<linearGradient id="XMLID_24_" gradientUnits="userSpaceOnUse" x1="118.84419" y1="-9.88661" x2="118.84419" y2="-4.49825" gradientTransform="matrix(1 0 0 -1 0 104)">
								<stop  offset="0" style="stop-color:#FFFFFF"/>
								<stop  offset="0.99806" style="stop-color:#4D4D4D"/>
							</linearGradient>
							<polygon id="XMLID_2166_" class="st24" points="123.59448,112.70577 123.59448,113.42994 114.09391,107.93878 
								114.09391,107.21461 							"/>
						</g>
					</g>
				</g>
				
					<linearGradient id="XMLID_25_" gradientUnits="userSpaceOnUse" x1="118.84419" y1="-9.88661" x2="118.84419" y2="-4.49825" gradientTransform="matrix(1 0 0 -1 0 104)">
					<stop  offset="0" style="stop-color:#00FFFB"/>
					<stop  offset="0.99806" style="stop-color:#3238C2"/>
				</linearGradient>
				<polygon id="XMLID_2165_" class="st25" points="123.59448,112.70577 123.59448,113.42994 114.09391,107.93878 
					114.09391,107.21461 				"/>
			</g>
		</g>
		<g>
			<g>
				<g>
					
						<linearGradient id="XMLID_26_" gradientUnits="userSpaceOnUse" x1="123.57388" y1="-8.70576" x2="123.57388" y2="-3.21461" gradientTransform="matrix(1 0 0 -1 0 104)">
						<stop  offset="0" style="stop-color:#FFFFFF"/>
						<stop  offset="1" style="stop-color:#1A1A1A"/>
					</linearGradient>
					<polygon id="XMLID_2162_" class="st26" points="123.59448,112.54061 114.09391,107.21461 114.09391,107.21461 
						123.59448,112.70576 133.05385,107.21461 133.05385,107.21461 					"/>
				</g>
			</g>
		</g>
		
			<linearGradient id="XMLID_27_" gradientUnits="userSpaceOnUse" x1="123.57388" y1="-8.70576" x2="123.57388" y2="-3.21461" gradientTransform="matrix(1 0 0 -1 0 104)">
			<stop  offset="0" style="stop-color:#00FFFF"/>
			<stop  offset="1" style="stop-color:#45FFFF"/>
		</linearGradient>
		<polygon id="XMLID_2083_" class="st27" points="123.59448,112.54061 114.09391,107.21461 114.09391,107.21461 
			123.59448,112.70576 133.05385,107.21461 133.05385,107.21461 		"/>
	</g>
</g>
<g>
	<g id="XMLID_2097_" class="st11">
		<g id="XMLID_2100_">
			<g id="XMLID_2107_">
				<g>
					<g>
						<g>
							
								<linearGradient id="XMLID_28_" gradientUnits="userSpaceOnUse" x1="61.85788" y1="-19.6608" x2="61.85788" y2="-8.49401" gradientTransform="matrix(1 0 0 -1 0 104)">
								<stop  offset="0" style="stop-color:#FFFFFF"/>
								<stop  offset="0.90514" style="stop-color:#1A1A1A"/>
							</linearGradient>
							<polygon id="XMLID_2109_" class="st28" points="71.33784,118.08314 61.87848,123.57429 52.3779,118.08314 
								61.87848,112.59199 							"/>
						</g>
					</g>
				</g>
				
					<linearGradient id="XMLID_29_" gradientUnits="userSpaceOnUse" x1="61.85788" y1="-19.6608" x2="61.85788" y2="-8.49401" gradientTransform="matrix(1 0 0 -1 0 104)">
					<stop  offset="0" style="stop-color:#00FFFB"/>
					<stop  offset="0.90514" style="stop-color:#3238C2"/>
				</linearGradient>
				<polygon id="XMLID_2108_" class="st29" points="71.33784,118.08314 61.87848,123.57429 52.3779,118.08314 61.87848,112.59199 
									"/>
			</g>
			<g id="XMLID_2104_">
				<g>
					<g>
						<g>
							
								<linearGradient id="XMLID_30_" gradientUnits="userSpaceOnUse" x1="66.60816" y1="-26.90902" x2="66.60816" y2="-16.94725" gradientTransform="matrix(1 0 0 -1 0 104)">
								<stop  offset="0" style="stop-color:#FFFFFF"/>
								<stop  offset="1" style="stop-color:#1A1A1A"/>
							</linearGradient>
							<polygon id="XMLID_2106_" class="st30" points="71.33784,118.08314 71.33784,124.32803 61.87848,129.81918 
								61.87848,123.57429 							"/>
						</g>
					</g>
				</g>
				
					<linearGradient id="XMLID_31_" gradientUnits="userSpaceOnUse" x1="66.60816" y1="-26.90902" x2="66.60816" y2="-16.94725" gradientTransform="matrix(1 0 0 -1 0 104)">
					<stop  offset="0" style="stop-color:#00FFFB"/>
					<stop  offset="1" style="stop-color:#3238C2"/>
				</linearGradient>
				<polygon id="XMLID_2105_" class="st31" points="71.33784,118.08314 71.33784,124.32803 61.87848,129.81918 61.87848,123.57429 
									"/>
			</g>
			<g id="XMLID_2101_">
				<g>
					<g>
						<g>
							
								<linearGradient id="XMLID_32_" gradientUnits="userSpaceOnUse" x1="57.12819" y1="-26.68151" x2="57.12819" y2="-16.50696" gradientTransform="matrix(1 0 0 -1 0 104)">
								<stop  offset="0" style="stop-color:#FFFFFF"/>
								<stop  offset="1" style="stop-color:#1A1A1A"/>
							</linearGradient>
							<polygon id="XMLID_2103_" class="st32" points="61.87848,123.57429 61.87848,129.81918 52.3779,124.32803 52.3779,118.08314 
															"/>
						</g>
					</g>
				</g>
				
					<linearGradient id="XMLID_33_" gradientUnits="userSpaceOnUse" x1="57.12819" y1="-26.68151" x2="57.12819" y2="-16.50696" gradientTransform="matrix(1 0 0 -1 0 104)">
					<stop  offset="0" style="stop-color:#00FFFB"/>
					<stop  offset="1" style="stop-color:#3238C2"/>
				</linearGradient>
				<polygon id="XMLID_2102_" class="st33" points="61.87848,123.57429 61.87848,129.81918 52.3779,124.32803 52.3779,118.08314 
									"/>
			</g>
		</g>
		<g>
			<g>
				<g>
					
						<linearGradient id="XMLID_34_" gradientUnits="userSpaceOnUse" x1="61.85788" y1="-19.57427" x2="61.85788" y2="-14.08313" gradientTransform="matrix(1 0 0 -1 0 104)">
						<stop  offset="0" style="stop-color:#FFFFFF"/>
						<stop  offset="1" style="stop-color:#1A1A1A"/>
					</linearGradient>
					<polygon id="XMLID_2099_" class="st34" points="61.87848,123.40914 52.3779,118.08313 52.3779,118.08313 61.87848,123.57427 
						71.33784,118.08313 71.33784,118.08313 					"/>
				</g>
			</g>
		</g>
		
			<linearGradient id="XMLID_35_" gradientUnits="userSpaceOnUse" x1="61.85788" y1="-19.57427" x2="61.85788" y2="-14.08313" gradientTransform="matrix(1 0 0 -1 0 104)">
			<stop  offset="0" style="stop-color:#00FFFF"/>
			<stop  offset="1" style="stop-color:#45FFFF"/>
		</linearGradient>
		<polygon id="XMLID_2098_" class="st35" points="61.87848,123.40914 52.3779,118.08313 52.3779,118.08313 61.87848,123.57427 
			71.33784,118.08313 71.33784,118.08313 		"/>
	</g>
	<g id="XMLID_2084_">
		<g id="XMLID_2087_">
			<g id="XMLID_2094_">
				<g>
					<g>
						<g>
							
								<linearGradient id="XMLID_36_" gradientUnits="userSpaceOnUse" x1="61.85788" y1="-18.07979" x2="61.85788" y2="-6.91298" gradientTransform="matrix(1 0 0 -1 0 104)">
								<stop  offset="0" style="stop-color:#FFFFFF"/>
								<stop  offset="0.90514" style="stop-color:#666666"/>
							</linearGradient>
							<polygon id="XMLID_2096_" class="st36" points="71.33784,116.50212 61.87848,121.99327 52.3779,116.50212 
								61.87848,111.01097 							"/>
						</g>
					</g>
				</g>
				
					<linearGradient id="XMLID_37_" gradientUnits="userSpaceOnUse" x1="61.85788" y1="-18.07979" x2="61.85788" y2="-6.91298" gradientTransform="matrix(1 0 0 -1 0 104)">
					<stop  offset="0" style="stop-color:#00FFFB"/>
					<stop  offset="0.90514" style="stop-color:#3238C2"/>
				</linearGradient>
				<polygon id="XMLID_2095_" class="st37" points="71.33784,116.50212 61.87848,121.99327 52.3779,116.50212 61.87848,111.01097 
									"/>
			</g>
			<g id="XMLID_2091_">
				<g>
					<g>
						<g>
							
								<linearGradient id="XMLID_38_" gradientUnits="userSpaceOnUse" x1="66.60816" y1="-19.29459" x2="66.60816" y2="-14.01893" gradientTransform="matrix(1 0 0 -1 0 104)">
								<stop  offset="0" style="stop-color:#FFFFFF"/>
								<stop  offset="1" style="stop-color:#4D4D4D"/>
							</linearGradient>
							<polygon id="XMLID_2093_" class="st38" points="71.33784,116.50212 71.33784,117.22628 61.87848,122.71743 
								61.87848,121.99327 							"/>
						</g>
					</g>
				</g>
				
					<linearGradient id="XMLID_39_" gradientUnits="userSpaceOnUse" x1="66.60816" y1="-19.29459" x2="66.60816" y2="-14.01893" gradientTransform="matrix(1 0 0 -1 0 104)">
					<stop  offset="0" style="stop-color:#00FFFB"/>
					<stop  offset="1" style="stop-color:#3238C2"/>
				</linearGradient>
				<polygon id="XMLID_2092_" class="st39" points="71.33784,116.50212 71.33784,117.22628 61.87848,122.71743 61.87848,121.99327 
									"/>
			</g>
			<g id="XMLID_2088_">
				<g>
					<g>
						<g>
							
								<linearGradient id="XMLID_40_" gradientUnits="userSpaceOnUse" x1="57.12819" y1="-19.17411" x2="57.12819" y2="-13.78576" gradientTransform="matrix(1 0 0 -1 0 104)">
								<stop  offset="0" style="stop-color:#FFFFFF"/>
								<stop  offset="0.99806" style="stop-color:#4D4D4D"/>
							</linearGradient>
							<polygon id="XMLID_2090_" class="st40" points="61.87848,121.99327 61.87848,122.71743 52.3779,117.22628 52.3779,116.50212 
															"/>
						</g>
					</g>
				</g>
				
					<linearGradient id="XMLID_41_" gradientUnits="userSpaceOnUse" x1="57.12819" y1="-19.17411" x2="57.12819" y2="-13.78576" gradientTransform="matrix(1 0 0 -1 0 104)">
					<stop  offset="0" style="stop-color:#00FFFB"/>
					<stop  offset="0.99806" style="stop-color:#3238C2"/>
				</linearGradient>
				<polygon id="XMLID_2089_" class="st41" points="61.87848,121.99327 61.87848,122.71743 52.3779,117.22628 52.3779,116.50212 
									"/>
			</g>
		</g>
		<g>
			<g>
				<g>
					
						<linearGradient id="XMLID_42_" gradientUnits="userSpaceOnUse" x1="61.85788" y1="-17.99327" x2="61.85788" y2="-12.50212" gradientTransform="matrix(1 0 0 -1 0 104)">
						<stop  offset="0" style="stop-color:#FFFFFF"/>
						<stop  offset="1" style="stop-color:#1A1A1A"/>
					</linearGradient>
					<polygon id="XMLID_2086_" class="st42" points="61.87848,121.82812 52.3779,116.50212 52.3779,116.50212 61.87848,121.99327 
						71.33784,116.50212 71.33784,116.50212 					"/>
				</g>
			</g>
		</g>
		
			<linearGradient id="XMLID_43_" gradientUnits="userSpaceOnUse" x1="61.85788" y1="-17.99327" x2="61.85788" y2="-12.50212" gradientTransform="matrix(1 0 0 -1 0 104)">
			<stop  offset="0" style="stop-color:#00FFFF"/>
			<stop  offset="1" style="stop-color:#45FFFF"/>
		</linearGradient>
		<polygon id="XMLID_2085_" class="st43" points="61.87848,121.82812 52.3779,116.50212 52.3779,116.50212 61.87848,121.99327 
			71.33784,116.50212 71.33784,116.50212 		"/>
	</g>
</g>
</svg>
