<?xml version="1.0" encoding="utf-8"?>
<!-- Generator: Adobe Illustrator 25.0.1, SVG Export Plug-In . SVG Version: 6.00 Build 0)  -->
<svg version="1.1" id="Layer_1" xmlns="http://www.w3.org/2000/svg" xmlns:xlink="http://www.w3.org/1999/xlink" x="0px" y="0px"
	 viewBox="0 0 150 150" style="enable-background:new 0 0 150 150;" xml:space="preserve">
<style type="text/css">
	.st0{opacity:0.6;}
	.st1{fill:url(#XMLID_33_);}
	.st2{fill:url(#XMLID_34_);}
	.st3{fill:url(#XMLID_35_);}
	.st4{fill:url(#XMLID_36_);}
	.st5{fill:url(#XMLID_38_);}
	.st6{fill:url(#XMLID_39_);}
	.st7{fill:url(#XMLID_41_);}
	.st8{fill:url(#XMLID_42_);}
	.st9{fill:url(#XMLID_43_);}
	.st10{fill:url(#XMLID_45_);}
	.st11{fill:url(#XMLID_46_);}
	.st12{fill:url(#XMLID_47_);}
	.st13{fill:url(#XMLID_48_);}
	.st14{fill:url(#XMLID_49_);}
	.st15{fill:url(#XMLID_50_);}
	.st16{fill:url(#XMLID_51_);}
	.st17{opacity:0.3;}
	.st18{opacity:0.6;fill:url(#XMLID_52_);enable-background:new    ;}
	.st19{opacity:0.6;fill:url(#XMLID_53_);enable-background:new    ;}
	.st20{fill:#00FFFB;}
	.st21{fill:url(#SVGID_1_);}
	.st22{fill:url(#SVGID_2_);}
	.st23{opacity:0.3;fill:url(#SVGID_3_);enable-background:new    ;}
	.st24{fill:url(#SVGID_4_);}
	.st25{fill:url(#SVGID_5_);}
	.st26{fill:#FFFFFF;}
	.st27{fill:url(#XMLID_54_);}
	.st28{fill:url(#XMLID_55_);}
	.st29{fill:url(#XMLID_56_);}
	.st30{fill:url(#XMLID_57_);}
	.st31{fill:url(#XMLID_58_);}
	.st32{fill:url(#XMLID_59_);}
	.st33{fill:url(#XMLID_60_);}
	.st34{fill:url(#XMLID_61_);}
	.st35{fill:url(#XMLID_62_);}
	.st36{fill:url(#XMLID_63_);}
	.st37{fill:url(#XMLID_64_);}
	.st38{fill:url(#XMLID_65_);}
	.st39{fill:url(#XMLID_66_);}
	.st40{fill:url(#XMLID_67_);}
	.st41{fill:url(#XMLID_68_);}
	.st42{fill:url(#XMLID_69_);}
	.st43{fill:url(#XMLID_70_);}
	.st44{fill:url(#XMLID_71_);}
	.st45{fill:url(#XMLID_72_);}
	.st46{fill:url(#XMLID_73_);}
	.st47{fill:url(#XMLID_74_);}
	.st48{fill:url(#XMLID_75_);}
	.st49{fill:url(#XMLID_76_);}
	.st50{fill:url(#XMLID_77_);}
	.st51{fill:url(#XMLID_78_);}
	.st52{fill:url(#XMLID_79_);}
	.st53{fill:url(#XMLID_80_);}
	.st54{fill:url(#XMLID_81_);}
	.st55{fill:url(#XMLID_82_);}
	.st56{fill:url(#XMLID_83_);}
	.st57{fill:url(#XMLID_84_);}
	.st58{fill:url(#XMLID_85_);}
</style>
<g id="XMLID_3516_" class="st0">
	<g id="XMLID_3519_">
		<g id="XMLID_3525_">
			<g>
				<g>
					<g>
						
							<linearGradient id="XMLID_33_" gradientUnits="userSpaceOnUse" x1="74.14513" y1="-9.97472" x2="74.14513" y2="25.86665" gradientTransform="matrix(1 0 0 -1 0 104)">
							<stop  offset="0" style="stop-color:#FFFFFF"/>
							<stop  offset="0.90514" style="stop-color:#1A1A1A"/>
						</linearGradient>
						<polygon id="XMLID_44_" class="st1" points="104.57238,96.07243 74.21127,113.69703 43.71787,96.07243 74.21127,78.44784 
													"/>
					</g>
				</g>
			</g>
			
				<linearGradient id="XMLID_34_" gradientUnits="userSpaceOnUse" x1="74.14513" y1="-9.97472" x2="74.14513" y2="25.86665" gradientTransform="matrix(1 0 0 -1 0 104)">
				<stop  offset="0" style="stop-color:#00FFFB"/>
				<stop  offset="0.90514" style="stop-color:#3238C2"/>
			</linearGradient>
			<polygon id="XMLID_3526_" class="st2" points="104.57238,96.07243 74.21127,113.69703 43.71787,96.07243 74.21127,78.44784 			
				"/>
		</g>
		<g id="XMLID_3522_">
			<g>
				<g>
					<g>
						
							<linearGradient id="XMLID_35_" gradientUnits="userSpaceOnUse" x1="89.39183" y1="-33.23883" x2="89.39183" y2="-1.26523" gradientTransform="matrix(1 0 0 -1 0 104)">
							<stop  offset="0" style="stop-color:#FFFFFF"/>
							<stop  offset="1" style="stop-color:#1A1A1A"/>
						</linearGradient>
						<polygon id="XMLID_40_" class="st3" points="104.57238,96.07243 104.57238,116.11627 74.21127,133.74088 74.21127,113.69703 
													"/>
					</g>
				</g>
			</g>
			
				<linearGradient id="XMLID_36_" gradientUnits="userSpaceOnUse" x1="89.39183" y1="-33.23883" x2="89.39183" y2="-1.26523" gradientTransform="matrix(1 0 0 -1 0 104)">
				<stop  offset="0" style="stop-color:#00FFFB"/>
				<stop  offset="1" style="stop-color:#3238C2"/>
			</linearGradient>
			<polygon id="XMLID_3523_" class="st4" points="104.57238,96.07243 104.57238,116.11627 74.21127,133.74088 74.21127,113.69703 
							"/>
		</g>
		<g id="XMLID_3520_">
			<g>
				<g>
					<g>
						
							<linearGradient id="XMLID_38_" gradientUnits="userSpaceOnUse" x1="58.96457" y1="-32.50864" x2="58.96457" y2="0.14798" gradientTransform="matrix(1 0 0 -1 0 104)">
							<stop  offset="0" style="stop-color:#FFFFFF"/>
							<stop  offset="1" style="stop-color:#1A1A1A"/>
						</linearGradient>
						<polygon id="XMLID_37_" class="st5" points="74.21127,113.69703 74.21127,133.74088 43.71787,116.11627 43.71787,96.07243 
													"/>
					</g>
				</g>
			</g>
			
				<linearGradient id="XMLID_39_" gradientUnits="userSpaceOnUse" x1="58.96457" y1="-32.50864" x2="58.96457" y2="0.14798" gradientTransform="matrix(1 0 0 -1 0 104)">
				<stop  offset="0" style="stop-color:#00FFFB"/>
				<stop  offset="1" style="stop-color:#3238C2"/>
			</linearGradient>
			<polygon id="XMLID_3521_" class="st6" points="74.21127,113.69703 74.21127,133.74088 43.71787,116.11627 43.71787,96.07243 			
				"/>
		</g>
	</g>
	<g>
		<g>
			<g>
				
					<linearGradient id="XMLID_41_" gradientUnits="userSpaceOnUse" x1="74.14512" y1="-9.69701" x2="74.14512" y2="7.92759" gradientTransform="matrix(1 0 0 -1 0 104)">
					<stop  offset="0" style="stop-color:#FFFFFF"/>
					<stop  offset="1" style="stop-color:#1A1A1A"/>
				</linearGradient>
				<polygon id="XMLID_32_" class="st7" points="74.21127,113.16695 43.71786,96.07241 43.71786,96.07241 74.21127,113.69701 
					104.57238,96.07241 104.57238,96.07241 				"/>
			</g>
		</g>
	</g>
	
		<linearGradient id="XMLID_42_" gradientUnits="userSpaceOnUse" x1="74.14512" y1="-9.69701" x2="74.14512" y2="7.92759" gradientTransform="matrix(1 0 0 -1 0 104)">
		<stop  offset="0" style="stop-color:#00FFFF"/>
		<stop  offset="1" style="stop-color:#45FFFF"/>
	</linearGradient>
	<polygon id="XMLID_3518_" class="st8" points="74.21127,113.16695 43.71786,96.07241 43.71786,96.07241 74.21127,113.69701 
		104.57238,96.07241 104.57238,96.07241 	"/>
</g>
<g id="XMLID_3506_">
	<g id="XMLID_3508_">
		<g id="XMLID_3514_">
			<g>
				<g>
					<g>
						
							<linearGradient id="XMLID_43_" gradientUnits="userSpaceOnUse" x1="74.14513" y1="-4.90024" x2="74.14513" y2="30.94115" gradientTransform="matrix(1 0 0 -1 0 104)">
							<stop  offset="0" style="stop-color:#FFFFFF"/>
							<stop  offset="0.90514" style="stop-color:#666666"/>
						</linearGradient>
						<polygon id="XMLID_28_" class="st9" points="104.57238,90.99794 74.21127,108.62254 43.71787,90.99794 74.21127,73.37334 
													"/>
					</g>
				</g>
			</g>
			
				<linearGradient id="XMLID_45_" gradientUnits="userSpaceOnUse" x1="74.14513" y1="-4.90024" x2="74.14513" y2="30.94115" gradientTransform="matrix(1 0 0 -1 0 104)">
				<stop  offset="0" style="stop-color:#00FFFB"/>
				<stop  offset="0.90514" style="stop-color:#3238C2"/>
			</linearGradient>
			<polygon id="XMLID_3515_" class="st10" points="104.57238,90.99794 74.21127,108.62254 43.71787,90.99794 74.21127,73.37334 			
				"/>
		</g>
		<g id="XMLID_3512_">
			<g>
				<g>
					<g>
						
							<linearGradient id="XMLID_46_" gradientUnits="userSpaceOnUse" x1="89.39183" y1="-8.79932" x2="89.39183" y2="8.13364" gradientTransform="matrix(1 0 0 -1 0 104)">
							<stop  offset="0" style="stop-color:#FFFFFF"/>
							<stop  offset="1" style="stop-color:#4D4D4D"/>
						</linearGradient>
						<polygon id="XMLID_24_" class="st11" points="104.57238,90.99794 104.57238,93.32223 74.21127,110.94682 74.21127,108.62254 
													"/>
					</g>
				</g>
			</g>
			
				<linearGradient id="XMLID_47_" gradientUnits="userSpaceOnUse" x1="89.39183" y1="-8.79932" x2="89.39183" y2="8.13364" gradientTransform="matrix(1 0 0 -1 0 104)">
				<stop  offset="0" style="stop-color:#00FFFB"/>
				<stop  offset="1" style="stop-color:#3238C2"/>
			</linearGradient>
			<polygon id="XMLID_3513_" class="st12" points="104.57238,90.99794 104.57238,93.32223 74.21127,110.94682 74.21127,108.62254 
							"/>
		</g>
		<g id="XMLID_3509_">
			<g>
				<g>
					<g>
						
							<linearGradient id="XMLID_48_" gradientUnits="userSpaceOnUse" x1="58.96457" y1="-8.41261" x2="58.96457" y2="8.88206" gradientTransform="matrix(1 0 0 -1 0 104)">
							<stop  offset="0" style="stop-color:#FFFFFF"/>
							<stop  offset="0.99806" style="stop-color:#4D4D4D"/>
						</linearGradient>
						<polygon id="XMLID_20_" class="st13" points="74.21127,108.62254 74.21127,110.94682 43.71787,93.32223 43.71787,90.99794 
													"/>
					</g>
				</g>
			</g>
			
				<linearGradient id="XMLID_49_" gradientUnits="userSpaceOnUse" x1="58.96457" y1="-8.41261" x2="58.96457" y2="8.88206" gradientTransform="matrix(1 0 0 -1 0 104)">
				<stop  offset="0" style="stop-color:#00FFFB"/>
				<stop  offset="0.99806" style="stop-color:#3238C2"/>
			</linearGradient>
			<polygon id="XMLID_3511_" class="st14" points="74.21127,108.62254 74.21127,110.94682 43.71787,93.32223 43.71787,90.99794 			
				"/>
		</g>
	</g>
	<g>
		<g>
			<g>
				
					<linearGradient id="XMLID_50_" gradientUnits="userSpaceOnUse" x1="74.14512" y1="-4.62252" x2="74.14512" y2="13.00208" gradientTransform="matrix(1 0 0 -1 0 104)">
					<stop  offset="0" style="stop-color:#FFFFFF"/>
					<stop  offset="1" style="stop-color:#1A1A1A"/>
				</linearGradient>
				<polygon id="XMLID_15_" class="st15" points="74.21127,108.09246 43.71786,90.99792 43.71786,90.99792 74.21127,108.62252 
					104.57238,90.99792 104.57238,90.99792 				"/>
			</g>
		</g>
	</g>
	
		<linearGradient id="XMLID_51_" gradientUnits="userSpaceOnUse" x1="74.14512" y1="-4.62252" x2="74.14512" y2="13.00208" gradientTransform="matrix(1 0 0 -1 0 104)">
		<stop  offset="0" style="stop-color:#00FFFF"/>
		<stop  offset="1" style="stop-color:#45FFFF"/>
	</linearGradient>
	<polygon id="XMLID_3507_" class="st16" points="74.21127,108.09246 43.71786,90.99792 43.71786,90.99792 74.21127,108.62252 
		104.57238,90.99792 104.57238,90.99792 	"/>
</g>
<g class="st17">
	
		<linearGradient id="XMLID_52_" gradientUnits="userSpaceOnUse" x1="73.93233" y1="6.11137" x2="73.93233" y2="57.92944" gradientTransform="matrix(1 0 0 -1 0 104)">
		<stop  offset="0" style="stop-color:#00FFFB"/>
		<stop  offset="1" style="stop-color:#3238C2"/>
	</linearGradient>
	<polygon id="XMLID_160_" class="st18" points="134.22557,44.55516 13.6391,44.55516 66.55758,93.48296 66.55763,93.48296 
		66.55758,93.48298 74.77716,97.88863 82.96103,93.48296 82.9611,93.48296 	"/>
	
		<linearGradient id="XMLID_53_" gradientUnits="userSpaceOnUse" x1="73.93233" y1="6.11137" x2="73.93233" y2="57.92944" gradientTransform="matrix(1 0 0 -1 0 104)">
		<stop  offset="0" style="stop-color:#00FFFB"/>
		<stop  offset="1" style="stop-color:#3238C2"/>
	</linearGradient>
	<polygon id="XMLID_158_" class="st19" points="119.23955,44.55516 28.62511,44.55516 66.55758,93.48296 66.55763,93.48296 
		66.55758,93.48298 74.77716,97.88863 82.96103,93.48296 82.9611,93.48296 	"/>
</g>
<polygon id="XMLID_162_" class="st20" points="83.87635,92.83627 74.80146,97.88863 65.68705,92.83635 74.80146,87.784 "/>
<g>
	<g class="st17">
		
			<linearGradient id="SVGID_1_" gradientUnits="userSpaceOnUse" x1="61.9304" y1="51.15919" x2="81.51245" y2="51.15919" gradientTransform="matrix(1 0 0 -1 0 104)">
			<stop  offset="0" style="stop-color:#00EBFB"/>
			<stop  offset="1" style="stop-color:#0096EA"/>
		</linearGradient>
		<path class="st21" d="M81.50322,70.83005c-0.05049,0.01649-0.1015,0.03119-0.15285,0.04501
			c-0.01143,0.00309-0.02291,0.00623-0.03439,0.00921c-0.05195,0.01335-0.1043,0.02536-0.15711,0.03603
			c-0.01196,0.00239-0.02402,0.00449-0.03597,0.00676c-0.03714,0.00705-0.0745,0.0134-0.11205,0.01912
			c-0.01306,0.00198-0.02606,0.00402-0.03918,0.00588c-0.04797,0.00665-0.09618,0.01254-0.14486,0.01703
			c-0.01329,0.00128-0.02676,0.00198-0.04017,0.00309c-0.02775,0.00227-0.05556,0.00449-0.08354,0.006
			c-0.01597,0.00093-0.03212,0.00128-0.04821,0.00198c-0.02536,0.00105-0.05077,0.0021-0.07636,0.00257
			c-0.01785,0.00034-0.0358,0.00023-0.0537,0.00028c-0.0246,0.00006-0.04915,0.00006-0.07387-0.00035
			c-0.01754-0.00028-0.03515-0.00092-0.05275-0.00151c-0.0256-0.00089-0.05124-0.00182-0.07706-0.0032
			c-0.01814-0.001-0.03632-0.00217-0.05451-0.00339c-0.02234-0.00152-0.04472-0.0032-0.06716-0.00513
			c-0.01987-0.00175-0.03988-0.00367-0.05988-0.00571c-0.0218-0.00221-0.04366-0.00455-0.06558-0.00716
			c-0.02058-0.00246-0.04121-0.00514-0.0619-0.00788c-0.02064-0.00279-0.04134-0.00571-0.06209-0.0088
			c-0.02152-0.00321-0.04309-0.00671-0.06471-0.01026c-0.02069-0.00344-0.04139-0.00694-0.0622-0.01073
			c-0.01639-0.00298-0.03288-0.00624-0.04932-0.00938c-0.06017-0.01155-0.12057-0.02402-0.18154-0.03836
			c-0.03649-0.00857-0.0724-0.01859-0.1086-0.02792c-0.05568-0.01434-0.11112-0.02933-0.16615-0.04541
			c-0.04524-0.0133-0.09054-0.02659-0.13531-0.04099c-0.0081-0.00262-0.0162-0.00501-0.02431-0.00764
			c-0.05585-0.01836-0.11123-0.03806-0.16638-0.05823c-0.05386-0.01965-0.10715-0.0407-0.16031-0.06215
			c-0.02152-0.00869-0.04332-0.01679-0.06477-0.02577c-0.06372-0.02675-0.12691-0.05497-0.18964-0.08429
			c-0.00845-0.00397-0.01708-0.00746-0.02554-0.01149c-0.07083-0.03352-0.1409-0.0689-0.2104-0.10569
			c-0.02163-0.01149-0.04285-0.0239-0.0643-0.03568c-0.04787-0.02617-0.09566-0.05264-0.14294-0.08038
			c-0.026-0.01534-0.05165-0.03149-0.07748-0.04734c-0.04226-0.02576-0.08448-0.05183-0.12627-0.07894
			c-0.02722-0.01771-0.05416-0.03603-0.08115-0.05421c-0.03976-0.02682-0.07934-0.05398-0.11863-0.08195
			c-0.04175-0.02974-0.08349-0.05965-0.12469-0.09071c-0.00637-0.00484-0.01283-0.00945-0.01918-0.01429
			c-0.05318-0.0404-0.10582-0.0822-0.15811-0.12481c-0.01212-0.0099-0.02425-0.01987-0.03632-0.02985
			c-0.05218-0.0432-0.10394-0.08722-0.15524-0.13262c-0.00717-0.00636-0.01429-0.01301-0.02145-0.01942
			c-0.04547-0.04069-0.09054-0.08231-0.13531-0.1247c-0.01411-0.01329-0.02816-0.02664-0.0421-0.04017
			c-0.03946-0.038-0.07858-0.07695-0.11752-0.11635c-0.01429-0.01447-0.02869-0.02858-0.04292-0.04321
			c-0.05095-0.05247-0.10143-0.1061-0.15139-0.16096c-0.02029-0.02227-0.04018-0.04548-0.06028-0.06809
			c-0.03306-0.03719-0.06617-0.07427-0.09875-0.11251c-0.02174-0.02548-0.04314-0.05183-0.06471-0.07777
			c-0.02968-0.03574-0.0594-0.07147-0.08878-0.10809c-0.05532-0.06908-0.11013-0.13956-0.16422-0.21185
			c-0.00379-0.005-0.00764-0.00967-0.01138-0.01475c-0.05782-0.07759-0.1149-0.15734-0.17133-0.23855
			c-0.04395-0.06326-0.08763-0.12738-0.1307-0.19279c-0.00764-0.01166-0.01516-0.02367-0.0228-0.03533
			c-0.03703-0.05684-0.07375-0.11444-0.11018-0.1729c-0.01371-0.02203-0.0274-0.04431-0.04105-0.06657
			c-0.03259-0.05317-0.06488-0.10715-0.09701-0.16166c-0.01148-0.01953-0.02303-0.03883-0.03445-0.05848
			c-0.04192-0.07235-0.08343-0.14574-0.12447-0.22036c-0.00909-0.01656-0.01801-0.03353-0.02705-0.05014
			c-0.03264-0.0601-0.06499-0.12085-0.09712-0.18241c-0.01311-0.02513-0.02612-0.05043-0.03917-0.07585
			c-0.03049-0.05957-0.06069-0.1198-0.09071-0.18072c-0.01019-0.02075-0.02052-0.04121-0.03072-0.06214
			c-0.03883-0.07999-0.07724-0.16102-0.1152-0.24327c-0.00932-0.02023-0.01848-0.04087-0.02774-0.06121
			c-0.02945-0.06466-0.05872-0.13-0.08763-0.19612c-0.01206-0.02757-0.02407-0.05521-0.03602-0.08295
			c-0.02903-0.0675-0.05784-0.13572-0.08628-0.20462c-0.00846-0.02041-0.01703-0.04052-0.02542-0.0611
			c-0.03603-0.08814-0.07165-0.17751-0.10674-0.26805c-0.00874-0.02251-0.01737-0.04547-0.02605-0.06821
			c-0.02723-0.07101-0.05416-0.14271-0.08086-0.21511c-0.01055-0.02869-0.0211-0.05737-0.03153-0.08628
			c-0.02822-0.07771-0.05609-0.15623-0.08366-0.23558c-0.00623-0.01802-0.01259-0.03568-0.01882-0.05375
			c-0.01423-0.04145-0.0281-0.08413-0.04222-0.12604c-0.0243-0.07224-0.04861-0.14441-0.07245-0.21791
			c-0.01505-0.04659-0.02974-0.09415-0.0446-0.14126c-0.02192-0.06937-0.0439-0.13874-0.06541-0.20929
			c-0.01528-0.05008-0.0302-0.10108-0.04524-0.15175c-0.02052-0.06907-0.04098-0.13815-0.0611-0.20829
			c-0.01515-0.05276-0.02997-0.10622-0.04489-0.15956c-0.01941-0.06955-0.03876-0.13927-0.05777-0.20987
			c-0.01632-0.06046-0.03236-0.12143-0.04838-0.18259c-0.01464-0.05596-0.02927-0.11193-0.04372-0.16853
			c-0.01639-0.06436-0.03248-0.12954-0.04856-0.19472c-0.014-0.05678-0.02805-0.1135-0.0418-0.17092
			c-0.01604-0.06681-0.03172-0.13449-0.04745-0.20218c-0.01324-0.05696-0.02654-0.11379-0.03953-0.17133
			c-0.01586-0.07013-0.03131-0.14114-0.04681-0.21209c-0.0123-0.05649-0.02477-0.11275-0.0369-0.16982
			c-0.01486-0.06997-0.02932-0.14097-0.04389-0.2118c-0.01266-0.06174-0.02547-0.12306-0.0379-0.18544
			c-0.01358-0.0681-0.02676-0.13729-0.04005-0.20619c-0.0127-0.06577-0.02553-0.13117-0.03794-0.19757
			c-0.01295-0.06919-0.02548-0.13945-0.03813-0.20934c-0.01207-0.06704-0.02437-0.13368-0.03621-0.20131
			c-0.01317-0.07526-0.02594-0.15157-0.03876-0.22765c-0.01067-0.06302-0.02151-0.12557-0.0319-0.18917
			c-0.01113-0.0678-0.02174-0.13677-0.03264-0.2052c-0.01254-0.07917-0.02518-0.15799-0.03743-0.23803
			c-0.01043-0.06861-0.02047-0.13828-0.03066-0.20748c-0.01201-0.08127-0.02408-0.16218-0.03568-0.24427
			c-0.00997-0.07013-0.01948-0.14125-0.02915-0.21203c-0.01131-0.08249-0.02261-0.16475-0.03358-0.2481
			c-0.0095-0.07235-0.01865-0.14569-0.02792-0.21874c-0.01049-0.08307-0.02103-0.16597-0.03118-0.24992
			c-0.0081-0.06663-0.01586-0.13414-0.02373-0.20136c-0.01212-0.10336-0.02408-0.207-0.03568-0.31165
			c-0.00764-0.06885-0.01511-0.13816-0.02257-0.2076c-0.01113-0.10417-0.02203-0.20899-0.0327-0.31445
			c-0.00706-0.06995-0.01411-0.14003-0.02093-0.21051c-0.01056-0.10843-0.02076-0.21779-0.03078-0.32751
			c-0.00629-0.06821-0.0126-0.1363-0.01865-0.20503c-0.01049-0.11898-0.02046-0.23925-0.03037-0.35975
			c-0.0053-0.06535-0.01096-0.13006-0.01615-0.19582c-0.00233-0.02956-0.00454-0.05934-0.00682-0.08902
			c-0.01014-0.1307-0.01994-0.26222-0.02938-0.39467c-0.00198-0.02816-0.00408-0.05608-0.00606-0.08429
			c-0.01044-0.14918-0.02041-0.29959-0.03002-0.45099c-0.00233-0.03644-0.00455-0.0731-0.00683-0.10965
			c-0.00845-0.13654-0.01656-0.27388-0.02431-0.41222c-0.00127-0.02267-0.00262-0.04512-0.0039-0.06785
			c-0.00845-0.15373-0.01644-0.3088-0.02402-0.46474c-0.00204-0.04075-0.00397-0.08173-0.00589-0.12266
			c-0.00734-0.15506-0.0144-0.3109-0.02093-0.46812c-0.00018-0.00443-0.00041-0.00887-0.00058-0.01329
			c-0.00024-0.00595-0.00047-0.0119-0.0007-0.01784c-0.00653-0.15898-0.01247-0.31929-0.01819-0.48048
			c-0.00175-0.05054-0.00344-0.10144-0.00513-0.15227c-0.00414-0.12493-0.00809-0.25056-0.01171-0.37683
			c-0.00146-0.04926-0.00291-0.0984-0.00432-0.14789c-0.00938-0.34366-0.01691-0.69211-0.02262-1.04539
			c-0.00076-0.04774-0.0014-0.09572-0.0021-0.14359c-0.00204-0.13769-0.00373-0.27615-0.00519-0.4153
			c-0.00047-0.04582-0.00105-0.09148-0.00146-0.13741c-0.00163-0.18183-0.00291-0.36453-0.00362-0.54875
			c-0.00076-0.20182-0.00099-0.40504-0.00058-0.6099c0.00029-0.16073,0.00099-0.32017,0.00198-0.47879
			c0.00023-0.04745,0.00064-0.0945,0.00099-0.14172c0.00082-0.11286,0.00181-0.22525,0.00291-0.33707
			c0.00053-0.05229,0.00111-0.10453,0.00169-0.15658c0.00134-0.11321,0.00286-0.22584,0.00455-0.33801
			c0.00065-0.04384,0.00117-0.08804,0.00192-0.13176c0.0024-0.15203,0.00513-0.3032,0.00822-0.4532
			c0.00059-0.02926,0.00134-0.05812,0.00192-0.08732c0.00262-0.12091,0.00536-0.24124,0.0084-0.36086
			c0.00133-0.05433,0.0028-0.10826,0.00426-0.1623c0.00256-0.09549,0.00524-0.19057,0.00809-0.28525
			c0.00169-0.05684,0.00339-0.11369,0.0052-0.17017c0.00326-0.10278,0.0067-0.20486,0.01025-0.30665
			c0.00152-0.04185,0.00286-0.08418,0.00437-0.12592c0.00513-0.14003,0.01055-0.27913,0.01633-0.4173
			c0.00163-0.04033,0.0035-0.08021,0.00519-0.12038c0.00436-0.10197,0.00892-0.20346,0.01358-0.30437
			c0.00233-0.04919,0.00467-0.09823,0.00706-0.14726c0.00466-0.09596,0.00951-0.19133,0.01446-0.2863
			c0.00233-0.0446,0.0046-0.08942,0.007-0.13385c0.00734-0.13479,0.0148-0.26893,0.02273-0.40173
			c0.00082-0.01404,0.00175-0.02787,0.00263-0.04197c0.00716-0.11956,0.01463-0.23825,0.02232-0.35625
			c0.00304-0.0467,0.00618-0.09304,0.00933-0.1395c0.00489-0.07275,0.00996-0.1451,0.01504-0.21727
			c0.00939-0.13309,0.01912-0.26496,0.02921-0.39589c0.00291-0.03807,0.00565-0.07655,0.00862-0.11438
			c0.01305-0.1662,0.02664-0.33077,0.04075-0.49354c0.00291-0.03352,0.00607-0.06645,0.00904-0.09991
			c0.01143-0.12907,0.02314-0.25709,0.03526-0.38395c0.00484-0.05084,0.0098-0.10133,0.01476-0.15175
			c0.01125-0.11456,0.02279-0.22817,0.03462-0.34098c0.00501-0.04751,0.00991-0.09531,0.01498-0.14254
			c0.00974-0.09053,0.01982-0.18007,0.02997-0.26938c0.00536-0.04781,0.01067-0.09597,0.01615-0.14342
			c0.0123-0.10587,0.025-0.21039,0.03783-0.31457c0.00372-0.03025,0.00729-0.06109,0.01108-0.09124
			c0.01684-0.13455,0.0341-0.26776,0.05188-0.39951c0.00315-0.02355,0.00648-0.04652,0.00968-0.07001
			c0.01457-0.10692,0.02938-0.2132,0.04454-0.31824c0.00886-0.06179,0.01807-0.12265,0.02721-0.18375
			c0.00829-0.05561,0.01644-0.11158,0.02489-0.16661c0.0098-0.06371,0.01988-0.12638,0.02991-0.18934
			c0.00828-0.05212,0.01644-0.1047,0.02489-0.15636c0.01044-0.06406,0.02128-0.12703,0.03201-0.19034
			c0.00839-0.04955,0.01656-0.09963,0.02512-0.14872c0.01142-0.06588,0.02326-0.13058,0.03498-0.19558
			c0.0081-0.04529,0.01609-0.09118,0.02438-0.136c0.01899-0.10314,0.03835-0.20503,0.05806-0.30594
			c0.00611-0.03149,0.01247-0.06239,0.01865-0.09363c0.01393-0.0703,0.02799-0.14038,0.04221-0.20958
			c0.00769-0.03708,0.01544-0.07368,0.02313-0.11041c0.01324-0.06267,0.02647-0.12505,0.03994-0.18678
			c0.00834-0.0383,0.01674-0.07638,0.02518-0.11432c0.01405-0.06313,0.02821-0.1258,0.04256-0.18801
			c0.007-0.03032,0.01399-0.06081,0.02105-0.09089c0.019-0.08109,0.03824-0.16142,0.05778-0.24088
			c0.00256-0.01038,0.005-0.02099,0.00757-0.03136c0.02175-0.08815,0.04396-0.17506,0.06635-0.26129
			c0.00717-0.02764,0.01451-0.05492,0.02174-0.08238c0.01667-0.06313,0.03346-0.1258,0.05048-0.18782
			c0.00671-0.02432,0.01335-0.04868,0.02006-0.07282c0.02139-0.0769,0.04302-0.15309,0.06493-0.22829
			c0.00204-0.007,0.00403-0.01411,0.00607-0.0211c0.02343-0.0801,0.04728-0.15898,0.07136-0.23716
			c0.00763-0.02483,0.01532-0.04931,0.02302-0.07391c0.0186-0.05946,0.03731-0.1184,0.05626-0.1767
			c0.00629-0.01941,0.01254-0.03906,0.01889-0.05835c0.0246-0.0748,0.04949-0.14866,0.07462-0.22159
			c0.00571-0.01649,0.01154-0.03282,0.01726-0.0492c0.02105-0.06034,0.04233-0.11997,0.06378-0.17897
			c0.00671-0.01848,0.01341-0.03702,0.02017-0.05538c0.01049-0.02844,0.02122-0.05614,0.03177-0.0843
			c0.02647-0.07036,0.05316-0.13979,0.08016-0.20818c0.01166-0.0295,0.02337-0.05876,0.03509-0.08791
			c0.02758-0.06833,0.05556-0.1356,0.08378-0.202c0.00945-0.02221,0.01871-0.04483,0.02821-0.06675
			c0.03748-0.08675,0.07537-0.17186,0.11391-0.2551c0.00624-0.01353,0.01265-0.02647,0.01895-0.03988
			c0.03242-0.06925,0.06518-0.1374,0.09835-0.20427c0.01253-0.0253,0.02518-0.05013,0.03783-0.07508
			c0.02844-0.05614,0.05718-0.11141,0.08622-0.16586c0.01277-0.02397,0.02547-0.0481,0.03837-0.0717
			c0.03438-0.06302,0.06914-0.12482,0.10423-0.1855c0.0074-0.01278,0.01463-0.02612,0.02209-0.03883
			c0.00362-0.00611,0.00729-0.01206,0.0109-0.01824c0.0288-0.04885,0.05795-0.09678,0.08727-0.14405
			c0.00839-0.01353,0.01679-0.02699,0.02519-0.0404c0.03288-0.05223,0.06599-0.10383,0.09945-0.15408
			c0.00012-0.00018,0.00024-0.00029,0.00029-0.00047c0.03236-0.04851,0.06512-0.09567,0.09807-0.1423
			c0.01288-0.01825,0.02582-0.03627,0.03881-0.05422c0.02309-0.03195,0.04629-0.06349,0.06961-0.09455
			c0.01318-0.01749,0.02629-0.03498,0.03947-0.05219c0.02571-0.0334,0.0516-0.06604,0.0776-0.0984
			c0.0106-0.01318,0.0211-0.02664,0.03177-0.03964c0.03678-0.04489,0.07386-0.0889,0.11129-0.13163
			c0.0042-0.00472,0.00839-0.00921,0.01254-0.01393c0.03259-0.03691,0.06541-0.07287,0.09846-0.1082
			c0.01143-0.01224,0.02296-0.02425,0.03445-0.03626c0.02763-0.02892,0.05544-0.05719,0.08337-0.085
			c0.01096-0.01084,0.02191-0.02192,0.03294-0.03264c0.03783-0.03684,0.07596-0.07298,0.11443-0.10785
			c0.00426-0.00385,0.00858-0.00746,0.01283-0.01125c0.03457-0.03107,0.06944-0.06127,0.10452-0.09065
			c0.01219-0.01026,0.02442-0.02028,0.03667-0.03031c0.02897-0.02373,0.05812-0.04693,0.08745-0.06961
			c0.01176-0.00909,0.02348-0.0183,0.03532-0.02722c0.03999-0.0302,0.08022-0.0597,0.12085-0.08785
			c0.00315-0.00216,0.00629-0.00414,0.00938-0.0063c0.03784-0.02606,0.07597-0.05106,0.11432-0.07543
			c0.01248-0.00793,0.02507-0.01563,0.03767-0.02338c0.03078-0.01895,0.0618-0.03737,0.09292-0.05526
			c0.01225-0.00706,0.02449-0.01417,0.0368-0.02106c0.04226-0.0236,0.08482-0.04652,0.12772-0.06809
			c0.00135-0.00064,0.00269-0.00122,0.00403-0.00186c0.04163-0.02087,0.0836-0.04052,0.12586-0.05946
			c0.01283-0.00577,0.02583-0.01132,0.03871-0.0169c0.03247-0.01399,0.06506-0.02752,0.09782-0.0404
			c0.013-0.00513,0.02599-0.01038,0.03905-0.01533c0.04437-0.01685,0.08896-0.033,0.13396-0.0478l-10.74857,3.53688
			c-0.04501,0.0148-0.0896,0.03095-0.13396,0.0478c-0.01305,0.00495-0.02605,0.0102-0.03912,0.01533
			c-0.0327,0.01289-0.06529,0.02635-0.09765,0.0404c-0.013,0.0056-0.026,0.01113-0.03888,0.01691
			c-0.04204,0.01888-0.08389,0.03848-0.12534,0.05923c-0.00151,0.0007-0.00304,0.00139-0.00455,0.00215
			c-0.04285,0.02152-0.08535,0.04437-0.12756,0.06792c-0.01241,0.00694-0.02471,0.01416-0.03708,0.02122
			c-0.03101,0.01783-0.0619,0.0362-0.09258,0.05514c-0.01265,0.00781-0.02535,0.01551-0.03795,0.02356
			c-0.03812,0.02414-0.07608,0.04908-0.11368,0.07497c-0.00333,0.00227-0.00665,0.00437-0.00997,0.00665
			c-0.04058,0.02821-0.08074,0.0576-0.12073,0.0878c-0.01189,0.00897-0.02367,0.01818-0.03551,0.0274
			c-0.02927,0.02262-0.05835,0.04576-0.08727,0.06949c-0.01231,0.01003-0.02454,0.02005-0.03673,0.03026
			c-0.0351,0.0295-0.07002,0.05964-0.10459,0.09076c-0.0042,0.00379-0.00851,0.00735-0.01271,0.0112
			c-0.03854,0.03487-0.07671,0.071-0.1146,0.10796c-0.0109,0.01062-0.02169,0.02152-0.03254,0.03224
			c-0.0281,0.02798-0.05608,0.05649-0.08389,0.08552c-0.01137,0.01189-0.02274,0.02373-0.03404,0.0358
			c-0.03329,0.03556-0.06635,0.07182-0.09911,0.10896c-0.00397,0.00449-0.00799,0.00881-0.01196,0.0133
			c-0.00117,0.00134-0.00233,0.00256-0.00349,0.0039c-0.03638,0.04162-0.07235,0.08441-0.10808,0.12808
			c-0.01038,0.01258-0.02058,0.0257-0.03085,0.03847c-0.02635,0.03277-0.05258,0.06588-0.07864,0.09975
			c-0.01295,0.01685-0.02583,0.03399-0.03865,0.05107c-0.02373,0.03154-0.04721,0.06354-0.0706,0.09595
			c-0.0127,0.01761-0.02541,0.03516-0.03801,0.053c-0.00687,0.00974-0.01387,0.01912-0.02074,0.02897
			c-0.02572,0.0369-0.05125,0.07439-0.07661,0.11246c-0.00058,0.00081-0.00111,0.00157-0.00169,0.00239
			c-0.03323,0.04996-0.06612,0.1012-0.09875,0.15308c-0.00863,0.0137-0.01726,0.02758-0.02589,0.04145
			c-0.02845,0.04588-0.05667,0.0924-0.08465,0.13974c-0.00461,0.00781-0.00928,0.01539-0.01388,0.0232
			c-0.00134,0.00233-0.00274,0.00455-0.00407,0.00688c-0.00507,0.00863-0.00992,0.0179-0.01492,0.02658
			c-0.03586,0.06186-0.0713,0.12494-0.10639,0.18929c-0.01311,0.02408-0.02612,0.04868-0.03918,0.07317
			c-0.0285,0.05352-0.05683,0.10796-0.08482,0.16323c-0.00793,0.01562-0.01615,0.03043-0.02402,0.04617
			c-0.00513,0.01026-0.01003,0.02116-0.01515,0.03148c-0.03265,0.06593-0.06495,0.13303-0.0969,0.20129
			c-0.00664,0.01417-0.0134,0.02787-0.02005,0.04215c-0.03813,0.08244-0.07567,0.16674-0.11275,0.25254
			c-0.00292,0.00665-0.00589,0.01294-0.0088,0.01965c-0.00769,0.0179-0.01505,0.03672-0.02267,0.05474
			c-0.02728,0.0643-0.05434,0.12936-0.08103,0.19547c-0.01202,0.02979-0.02396,0.05975-0.03592,0.08995
			c-0.02641,0.06686-0.05253,0.13478-0.07836,0.20351c-0.00723,0.01919-0.01469,0.03749-0.02185,0.05678
			c-0.00409,0.01102-0.00805,0.02234-0.01213,0.03335c-0.00618,0.01685-0.0123,0.03387-0.01848,0.05078
			c-0.02175,0.05981-0.04332,0.12033-0.0647,0.18153c-0.00571,0.01645-0.01149,0.03265-0.0172,0.04915
			c-0.02536,0.07351-0.05042,0.1479-0.0752,0.22334c-0.00548,0.01667-0.01091,0.0337-0.01639,0.05049
			c-0.01113,0.03427-0.02232,0.06826-0.03334,0.10289c-0.00887,0.02792-0.01754,0.05643-0.02636,0.08459
			c-0.00687,0.02209-0.01381,0.04413-0.02064,0.06635c-0.02442,0.07927-0.04861,0.15926-0.0724,0.24053
			c-0.0018,0.00612-0.00356,0.01242-0.00531,0.01853c-0.02198,0.07545-0.04367,0.15186-0.06511,0.22899
			c-0.00712,0.02542-0.01411,0.05107-0.02116,0.07666c-0.007,0.02559-0.01411,0.0509-0.0211,0.07672
			c-0.00963,0.03551-0.01895,0.07182-0.02845,0.10767c-0.00729,0.02752-0.01457,0.05492-0.0218,0.08261
			c-0.02262,0.08715-0.04506,0.17495-0.06705,0.26414c-0.00122,0.00483-0.00239,0.00978-0.00356,0.01463
			c-0.02086,0.08477-0.04138,0.17058-0.06168,0.25715c-0.00687,0.02915-0.01358,0.05871-0.02034,0.08809
			c-0.00834,0.03608-0.01679,0.07176-0.02501,0.1082c-0.00595,0.02623-0.01166,0.0531-0.01755,0.07957
			c-0.00863,0.03894-0.01731,0.07812-0.02588,0.11741c-0.01312,0.06028-0.02607,0.12114-0.03888,0.18224
			c-0.00805,0.03806-0.01609,0.07602-0.02402,0.11449c-0.01423,0.0689-0.02816,0.13863-0.04204,0.20853
			c-0.00611,0.03102-0.01242,0.06162-0.01847,0.09275c-0.01959,0.10051-0.03894,0.20194-0.05789,0.30454
			c-0.00035,0.00181-0.00064,0.00368-0.00099,0.00548c-0.00309,0.0169-0.00606,0.0344-0.00922,0.05136
			c-0.01685,0.0924-0.03358,0.18533-0.04996,0.27942c-0.0067,0.03872-0.01318,0.07836-0.01982,0.11729
			c-0.01242,0.07339-0.02495,0.14656-0.03714,0.22095c-0.00757,0.04657-0.01492,0.09408-0.02238,0.14101
			c-0.01085,0.06803-0.02174,0.13578-0.03236,0.20456c-0.0074,0.04827-0.01457,0.09742-0.02186,0.1461
			c-0.00886,0.05929-0.01789,0.11794-0.02658,0.17781c-0.0014,0.00962-0.00268,0.01953-0.00408,0.02914
			c-0.01399,0.09707-0.02758,0.19541-0.0411,0.29405c-0.0042,0.03061-0.00851,0.06063-0.01266,0.09135
			c-0.0176,0.1307-0.03474,0.26286-0.05147,0.39642c-0.00454,0.03655-0.00892,0.07386-0.01341,0.11058
			c-0.01189,0.097-0.02378,0.19431-0.03521,0.29277c-0.00636,0.05457-0.01242,0.10994-0.01865,0.16498
			c-0.00921,0.08162-0.01842,0.16328-0.02734,0.24595c-0.00204,0.01889-0.0042,0.03731-0.00624,0.05626
			c-0.00361,0.03399-0.00693,0.06908-0.01049,0.10325c-0.01114,0.10651-0.02203,0.21377-0.0327,0.32185
			c-0.00542,0.05527-0.01084,0.11053-0.01616,0.16615c-0.01142,0.11939-0.02243,0.23983-0.03317,0.36115
			c-0.00361,0.04039-0.00734,0.08027-0.0109,0.12096c-0.01387,0.15985-0.02716,0.32151-0.04005,0.48468
			c-0.00344,0.04379-0.00665,0.08826-0.01003,0.13221c-0.0095,0.12447-0.01877,0.24975-0.02769,0.37608
			c-0.00186,0.0263-0.00396,0.05183-0.00576,0.07824c-0.00362,0.05235-0.00706,0.1054-0.01056,0.1581
			c-0.00269,0.03994-0.00542,0.07981-0.00805,0.11998c-0.00857,0.13111-0.01691,0.26292-0.02484,0.39602
			c-0.00011,0.00145-0.00023,0.00291-0.00029,0.0043c-0.00811,0.13643-0.01585,0.27412-0.02332,0.41252
			c-0.00204,0.03813-0.00402,0.07648-0.00601,0.11473c-0.00536,0.10196-0.01055,0.20444-0.01556,0.30751
			c-0.0021,0.04401-0.00425,0.08809-0.0063,0.13228c-0.00502,0.10761-0.00985,0.21593-0.01451,0.32483
			c-0.00146,0.03422-0.00303,0.06815-0.00443,0.10248c-0.00583,0.14084-0.01143,0.28274-0.01662,0.42569
			c-0.00128,0.03503-0.00244,0.07054-0.00367,0.10564c-0.00286,0.08056-0.00577,0.16084-0.00839,0.24199
			c-0.00094,0.02839-0.0017,0.05719-0.00263,0.08563c-0.00163,0.0527-0.00326,0.10575-0.00483,0.15868
			c-0.00297,0.09864-0.00571,0.19775-0.0084,0.29725c-0.00139,0.05172-0.0028,0.10331-0.00408,0.15525
			c-0.00303,0.11933-0.00577,0.23948-0.0084,0.36015c-0.00063,0.0302-0.0014,0.0601-0.00198,0.09043
			c-0.00302,0.14871-0.00576,0.29865-0.00816,0.4494c-0.00081,0.04833-0.00146,0.09713-0.00216,0.14569
			c-0.00157,0.1058-0.00298,0.21202-0.00426,0.31888c-0.0007,0.05801-0.00128,0.11625-0.00186,0.17454
			c-0.00111,0.10441-0.00199,0.20935-0.00274,0.31469c-0.00042,0.05311-0.00082,0.1061-0.00117,0.15944
			c-0.00093,0.157-0.00163,0.31469-0.00192,0.47372c-0.00041,0.208-0.00018,0.41449,0.00064,0.61946v0.00076
			c0.00071,0.17623,0.00192,0.35101,0.00349,0.52497c0.00053,0.05806,0.00117,0.11578,0.00181,0.17361
			c0.00134,0.12575,0.00291,0.25091,0.00467,0.37549c0.00082,0.05673,0.00163,0.11351,0.0025,0.17
			c0.00274,0.16615,0.00571,0.33148,0.00922,0.49552c0.00017,0.00834,0.00029,0.01685,0.00052,0.02518
			c0.00373,0.17285,0.00805,0.34425,0.01271,0.51471c0.00139,0.04966,0.00286,0.09898,0.00431,0.14842
			c0.00367,0.12744,0.00764,0.25423,0.01184,0.38033c0.00164,0.04868,0.0032,0.09742,0.00496,0.14586
			c0.00588,0.16819,0.01213,0.33556,0.01895,0.50135c0.00676,0.16364,0.01411,0.32565,0.02174,0.48701
			c0.0018,0.03743,0.00355,0.07485,0.00542,0.11216c0.00776,0.15891,0.01586,0.31696,0.02449,0.47361
			c0.00094,0.01731,0.00198,0.03445,0.00298,0.05176c0.0081,0.14493,0.01661,0.28869,0.02547,0.43169
			c0.00204,0.03248,0.00402,0.06507,0.00607,0.09748c0.00979,0.15466,0.02,0.30821,0.03065,0.46054
			c0.00164,0.02314,0.00333,0.04605,0.00496,0.06914c0.00991,0.13916,0.02023,0.27737,0.03083,0.41467
			c0.00193,0.02484,0.00385,0.0499,0.00578,0.07468c0.00145,0.0186,0.00285,0.03736,0.00431,0.0559
			c0.00426,0.05352,0.00904,0.10575,0.01341,0.15898c0.00938,0.11414,0.01883,0.22816,0.0288,0.34098
			c0.00641,0.0731,0.01311,0.1455,0.01981,0.21815c0.00963,0.10534,0.01942,0.21033,0.02957,0.31445
			c0.00711,0.07351,0.01446,0.14656,0.0218,0.21944c0.01044,0.10295,0.0211,0.20531,0.03201,0.3071
			c0.00752,0.07065,0.0151,0.14119,0.02291,0.21127c0.01172,0.10575,0.02384,0.21057,0.03609,0.31504
			c0.00518,0.04436,0.01003,0.08965,0.01532,0.13385c0.00245,0.0204,0.00514,0.04028,0.00758,0.06063
			c0.01044,0.08593,0.02122,0.17086,0.03195,0.25586c0.0091,0.07188,0.01813,0.14405,0.02746,0.21529
			c0.01096,0.08354,0.02232,0.16602,0.03364,0.24869c0.00967,0.07054,0.01918,0.14149,0.02908,0.21144
			c0.01189,0.08372,0.0242,0.16626,0.03638,0.24905c0.00991,0.0671,0.01965,0.13472,0.02979,0.20118
			c0.01283,0.08413,0.02612,0.16697,0.0393,0.25004c0.00874,0.05497,0.01714,0.11076,0.02599,0.16527
			c0.00152,0.00945,0.00315,0.01854,0.00472,0.02799c0.0105,0.06406,0.0214,0.12702,0.03212,0.19051
			c0.01294,0.07677,0.02583,0.1539,0.03912,0.22981c0.01102,0.06301,0.02244,0.12498,0.03375,0.18742
			c0.01347,0.07485,0.02693,0.14999,0.04076,0.22398c0.01171,0.06277,0.02384,0.12446,0.03584,0.1866
			c0.01389,0.07206,0.02764,0.14423,0.04186,0.21546c0.01259,0.06309,0.02553,0.12517,0.03836,0.18761
			c0.01114,0.0541,0.02192,0.10889,0.03323,0.16253c0.00315,0.0148,0.00641,0.02921,0.00956,0.04402
			c0.01258,0.05934,0.02553,0.11781,0.03841,0.17658c0.01511,0.06924,0.0302,0.13851,0.04559,0.20689
			c0.01294,0.05725,0.02618,0.11374,0.03935,0.17041c0.01597,0.06884,0.03195,0.1377,0.04827,0.20567
			c0.01311,0.05469,0.02646,0.10879,0.03981,0.16288c0.01691,0.06856,0.03381,0.137,0.05106,0.20468
			c0.01342,0.05264,0.02706,0.10464,0.04064,0.15676c0.01108,0.04226,0.0218,0.08535,0.033,0.12725h0.00005
			c0.00566,0.02128,0.01161,0.0418,0.01732,0.0629c0.01883,0.06971,0.03795,0.13863,0.05713,0.2073
			c0.01532,0.05503,0.0306,0.11018,0.04622,0.16463c0.01924,0.06698,0.03883,0.13303,0.05841,0.19903
			c0.01598,0.05387,0.03184,0.10809,0.0481,0.16131c0.0204,0.06697,0.04128,0.1328,0.06208,0.19873
			c0.01586,0.05025,0.03154,0.10102,0.04763,0.1507c0.02349,0.07264,0.04757,0.14394,0.07159,0.21529
			c0.0123,0.03649,0.02419,0.07392,0.03661,0.11007c0.00192,0.00565,0.00397,0.01114,0.00589,0.01678
			c0.00636,0.01855,0.01288,0.03661,0.0193,0.05504c0.02752,0.07922,0.05532,0.15762,0.08348,0.23528
			c0.01026,0.02834,0.02064,0.0566,0.03101,0.08482c0.02717,0.07375,0.05463,0.1468,0.08238,0.21914
			c0.00816,0.02122,0.01621,0.04267,0.02437,0.06377c0.0355,0.09153,0.07148,0.18188,0.1079,0.27102
			c0.00741,0.01814,0.01499,0.03597,0.02245,0.05399c0.02967,0.07175,0.05963,0.14282,0.0899,0.21307
			c0.01107,0.02572,0.0222,0.05131,0.03334,0.07684c0.03031,0.0692,0.06086,0.13759,0.09176,0.20526
			c0.00805,0.01767,0.01603,0.03569,0.02414,0.05323c0.03853,0.0836,0.07753,0.16592,0.117,0.24712
			c0.00904,0.01854,0.01819,0.03667,0.02723,0.05508c0.03124,0.06355,0.06272,0.12627,0.09456,0.18831
			c0.01223,0.0239,0.02448,0.04768,0.03678,0.07129c0.03311,0.06361,0.06657,0.12639,0.10033,0.18835
			c0.00816,0.01505,0.0162,0.03038,0.02436,0.04524c0.0414,0.07526,0.0832,0.14925,0.12547,0.22211
			c0.01096,0.01895,0.02209,0.03743,0.03311,0.05621c0.03247,0.05515,0.06512,0.10972,0.09811,0.16352
			c0.0136,0.02222,0.02723,0.04442,0.04093,0.06641c0.03596,0.05771,0.07224,0.11455,0.10878,0.17063
			c0.00822,0.01259,0.01627,0.02554,0.02454,0.03807c0.03883,0.059,0.078,0.11717,0.11759,0.17442
			c0.00396,0.00577,0.0081,0.01113,0.01212,0.01685c0.05649,0.08132,0.11351,0.16119,0.17139,0.23884
			c0.0053,0.00706,0.01073,0.01371,0.01598,0.02075c0.05276,0.07032,0.10616,0.1391,0.16009,0.20638
			c0.00524,0.00658,0.01031,0.01364,0.01562,0.02017c0.02483,0.03078,0.05019,0.06033,0.07525,0.09048
			c0.02058,0.02477,0.04099,0.04996,0.06174,0.07426c0.03521,0.04127,0.07082,0.08126,0.10645,0.12126
			c0.01754,0.0197,0.03486,0.03993,0.05252,0.05934c0.00262,0.00286,0.00519,0.00594,0.00781,0.0088
			c0.0481,0.05258,0.09666,0.10389,0.14563,0.15431c0.01254,0.01294,0.02536,0.02541,0.03794,0.03825
			c0.0291,0.02937,0.05801,0.05911,0.08733,0.0878c0.01172,0.01142,0.02361,0.02243,0.03539,0.03374
			c0.01312,0.01265,0.02629,0.02513,0.03947,0.03761c0.04636,0.04389,0.09293,0.08698,0.13998,0.12895
			c0.00577,0.00513,0.01143,0.01049,0.01714,0.01556c0.00204,0.00175,0.00396,0.00367,0.006,0.00542
			c0.04996,0.0442,0.10056,0.08687,0.15133,0.12895c0.01125,0.00933,0.02257,0.01865,0.03394,0.02787
			c0.01299,0.01061,0.02594,0.02157,0.03899,0.03207c0.04012,0.03217,0.08051,0.06354,0.12109,0.09432
			c0.0056,0.00431,0.01131,0.0084,0.01691,0.0126c0.02938,0.02215,0.0587,0.04418,0.08831,0.06564l0.00129-0.00041
			c0.00005,0,0.00005,0,0.00005,0l-0.00128,0.00047c0.01242,0.00903,0.02519,0.01714,0.03766,0.02605
			c0.039,0.02775,0.07835,0.05474,0.11782,0.08139c0.0179,0.01207,0.03539,0.02507,0.0534,0.0369
			c0.0098,0.00647,0.01982,0.01218,0.02967,0.01854c0.04076,0.02647,0.08185,0.05183,0.12306,0.07701
			c0.02024,0.01236,0.04012,0.02577,0.06046,0.03783c0.00665,0.00391,0.01347,0.0074,0.02005,0.01131
			c0.04576,0.02687,0.09206,0.05247,0.1384,0.07788c0.01977,0.01084,0.03912,0.02256,0.05894,0.03317
			c0.0032,0.00175,0.00653,0.0032,0.00979,0.00489c0.06914,0.03661,0.13886,0.07183,0.20928,0.10517
			c0.00076,0.00035,0.00152,0.00082,0.00228,0.00117c0.0099,0.00465,0.0201,0.00874,0.03008,0.01334
			c0.06052,0.02815,0.12138,0.0555,0.18282,0.08126c0.00426,0.00182,0.00845,0.00391,0.0127,0.00566
			c0.01807,0.00751,0.03656,0.01387,0.05469,0.02122c0.05229,0.02105,0.10471,0.04174,0.15758,0.0611
			c0.00903,0.00327,0.01785,0.00711,0.02688,0.01038c0.01743,0.00623,0.03527,0.01136,0.05275,0.01742
			c0.05294,0.01836,0.1061,0.03609,0.15968,0.05276c0.01516,0.00472,0.02996,0.01038,0.04512,0.01492
			c0.01411,0.00426,0.02862,0.00758,0.04272,0.01167c0.05451,0.01598,0.10949,0.03083,0.16463,0.04501
			c0.01855,0.00478,0.03673,0.0106,0.05532,0.01515c0.01807,0.00443,0.03615,0.0088,0.05428,0.01306
			c0.06097,0.01434,0.12137,0.02682,0.18153,0.03836c0.00729,0.0014,0.01469,0.00326,0.02198,0.00466
			c0.00909,0.00169,0.01807,0.00303,0.02716,0.00466c0.02116,0.00385,0.04227,0.00746,0.06332,0.01096
			c0.02104,0.00344,0.04203,0.00682,0.06296,0.00997c0.02116,0.00321,0.04226,0.00612,0.06331,0.00893
			c0.01142,0.00157,0.02303,0.00343,0.03445,0.00489c0.00898,0.00117,0.0179,0.00187,0.02688,0.00292
			c0.02226,0.00268,0.04454,0.00507,0.0667,0.00734c0.0194,0.00192,0.03881,0.00385,0.05818,0.00549
			c0.02273,0.00198,0.0454,0.00367,0.06802,0.00524c0.0108,0.00069,0.02169,0.00181,0.03248,0.00245
			c0.00741,0.00047,0.01464,0.00053,0.02203,0.00093c0.02571,0.0014,0.05136,0.00233,0.0769,0.0032
			c0.0176,0.00059,0.03527,0.00122,0.05281,0.00152c0.02473,0.00041,0.04926,0.00041,0.07381,0.00035
			c0.01311-0.00006,0.02635,0.00034,0.0394,0.00017c0.00478-0.00005,0.00951-0.00034,0.01423-0.00047
			c0.02571-0.00047,0.05125-0.00151,0.07673-0.00256c0.01597-0.00069,0.032-0.00104,0.04786-0.00198
			c0.02827-0.00152,0.05637-0.00378,0.08441-0.00607c0.01189-0.00093,0.02384-0.00151,0.03568-0.00256l0.00029-0.00012
			c0.00065,0,0.00128-0.00011,0.00193-0.00023c0.04949-0.00455,0.09851-0.01049,0.14731-0.01731
			c0.01241-0.00169,0.02478-0.00367,0.03714-0.00554c0.0379-0.00578,0.07561-0.01219,0.1131-0.0193
			c0.00833-0.00157,0.01678-0.00262,0.02507-0.00426c0.00373-0.00069,0.00734-0.00175,0.01101-0.00256
			c0.05293-0.0106,0.10546-0.02273,0.15759-0.03614c0.01107-0.00279,0.02209-0.00589,0.03316-0.00887
			c0.05119-0.01375,0.10202-0.02844,0.15239-0.04482c0.00239-0.00076,0.00478-0.00134,0.00717-0.00211l10.7485-3.53687
			c0.00111-0.00041,0.00221-0.00076,0.00333-0.00111C81.50945,70.82825,81.50631,70.82906,81.50322,70.83005z"/>
		
			<linearGradient id="SVGID_2_" gradientUnits="userSpaceOnUse" x1="66.9436" y1="30.46628" x2="66.94366" y2="30.46628" gradientTransform="matrix(1 0 0 -1 0 104)">
			<stop  offset="0" style="stop-color:#00EBFB"/>
			<stop  offset="1" style="stop-color:#0096EA"/>
		</linearGradient>
		<polygon class="st22" points="66.9436,73.53374 66.94366,73.53374 66.9436,73.53369 		"/>
	</g>
	
		<linearGradient id="SVGID_3_" gradientUnits="userSpaceOnUse" x1="62.32904" y1="51.61673" x2="95.65279" y2="51.61673" gradientTransform="matrix(1 0 0 -1 0 104)">
		<stop  offset="0" style="stop-color:#00EBFB"/>
		<stop  offset="1" style="stop-color:#0096EA"/>
	</linearGradient>
	<path class="st23" d="M95.65212,54.77891c-0.00146-0.27341-0.0042-0.5449-0.00803-0.81476
		c-0.00128-0.08832-0.00333-0.17553-0.00484-0.26344c-0.00315-0.18073-0.0063-0.36145-0.0105-0.54059
		c-0.00244-0.10523-0.00571-0.20929-0.00856-0.31393c-0.00438-0.16019-0.00869-0.32046-0.01394-0.47937
		c-0.00367-0.11176-0.00805-0.22246-0.01218-0.33358c-0.00408-0.10983-0.00758-0.22054-0.01207-0.32979
		c-0.00169-0.04105-0.00385-0.08144-0.00559-0.12242c-0.00455-0.10546-0.00957-0.21022-0.01446-0.31516
		c-0.00706-0.15011-0.01428-0.29988-0.02216-0.44876c-0.00559-0.10633-0.01149-0.21226-0.01755-0.31796
		c-0.00833-0.1465-0.01707-0.29241-0.02618-0.43769c-0.00665-0.10516-0.01335-0.21011-0.02039-0.31457
		c-0.00974-0.14504-0.02007-0.28926-0.03067-0.43314c-0.00758-0.10295-0.01505-0.20596-0.02303-0.30827
		c-0.0031-0.04023-0.00584-0.0811-0.00904-0.12126c-0.00938-0.11753-0.0197-0.23359-0.02962-0.35031
		c-0.00665-0.07875-0.013-0.15799-0.01994-0.2364c-0.02074-0.23447-0.04238-0.46759-0.06535-0.69881
		c-0.00093-0.00956-0.00204-0.01895-0.00298-0.02851c-0.02221-0.22269-0.04559-0.4437-0.06989-0.66341
		c-0.0081-0.07328-0.01674-0.14574-0.02507-0.21873c-0.01289-0.11286-0.02536-0.22631-0.03883-0.33836
		c-0.00525-0.04383-0.01102-0.08703-0.01639-0.13081c-0.00956-0.07823-0.01941-0.15612-0.02927-0.234
		c-0.01876-0.14842-0.03801-0.29614-0.05771-0.44317c-0.01049-0.07783-0.02093-0.15565-0.03165-0.23307
		c-0.02168-0.1567-0.04414-0.31242-0.06699-0.46755c-0.00921-0.06244-0.01807-0.12534-0.02746-0.18754
		c-0.03201-0.21196-0.06477-0.42277-0.09887-0.63164c-0.00069-0.0042-0.00146-0.00835-0.0021-0.01259
		c-0.00344-0.02076-0.00706-0.04122-0.0105-0.06197c-0.03148-0.19122-0.06395-0.38103-0.09724-0.56962
		c-0.01171-0.06663-0.02396-0.13262-0.0359-0.19896c-0.02595-0.14347-0.05229-0.28642-0.07928-0.42843
		c-0.01389-0.07316-0.02798-0.14614-0.04215-0.21896c-0.02711-0.13892-0.0548-0.27702-0.08291-0.41449
		c-0.01375-0.06757-0.02745-0.13536-0.0415-0.20252c-0.00624-0.03008-0.01218-0.06063-0.01854-0.0906
		c-0.02524-0.1195-0.05154-0.23756-0.07754-0.35596c-0.01213-0.05502-0.02385-0.1107-0.03609-0.1655
		c-0.04501-0.20113-0.09112-0.40067-0.1384-0.59848c-0.00909-0.03807-0.01865-0.07538-0.0278-0.11328
		c-0.03854-0.1592-0.07759-0.31766-0.11759-0.4747c-0.01743-0.06839-0.03539-0.13601-0.05311-0.20398
		c-0.02261-0.08686-0.04472-0.17442-0.0678-0.26064c-0.0092-0.03434-0.01894-0.06786-0.02821-0.10208
		c-0.02769-0.10226-0.05596-0.20358-0.0843-0.30484c-0.02833-0.10156-0.05672-0.20311-0.08581-0.30373
		c-0.02856-0.09916-0.05784-0.19745-0.0871-0.29568c-0.02997-0.10068-0.05993-0.20135-0.09059-0.30105
		c-0.02969-0.09666-0.06-0.19238-0.09031-0.2881c-0.03142-0.09929-0.0629-0.19851-0.09502-0.29684
		c-0.03085-0.09451-0.06232-0.18813-0.09381-0.2817c-0.0215-0.06395-0.04231-0.12901-0.06412-0.19255
		c-0.01371-0.03988-0.02792-0.07905-0.04168-0.11875c-0.01965-0.05643-0.03942-0.11257-0.05923-0.16865
		c-0.04349-0.12295-0.08756-0.24497-0.13216-0.36634c-0.01871-0.05095-0.03725-0.10214-0.05621-0.15285
		c-0.06132-0.16428-0.12341-0.32751-0.18684-0.48882c-0.00151-0.00384-0.00297-0.00781-0.00449-0.01165
		c-0.06512-0.16562-0.13163-0.32927-0.19897-0.49174c-0.0197-0.04762-0.03982-0.09467-0.05969-0.14201
		c-0.04891-0.11624-0.09829-0.23173-0.14825-0.34628c-0.02285-0.05235-0.04571-0.10453-0.06879-0.15647
		c-0.05212-0.11752-0.10499-0.23413-0.15827-0.3499c-0.019-0.04121-0.03772-0.08284-0.05685-0.12383
		c-0.07223-0.15466-0.14532-0.30799-0.21966-0.4595c-0.01231-0.02512-0.02502-0.04966-0.03737-0.07473
		c-0.06244-0.12621-0.12557-0.25138-0.18947-0.37543c-0.02455-0.04757-0.04938-0.09468-0.07409-0.14195
		c-0.05445-0.104-0.10943-0.20719-0.16492-0.30962c-0.02554-0.0471-0.05101-0.09426-0.07678-0.14102
		c-0.06419-0.11665-0.12924-0.2322-0.19488-0.3468c-0.01569-0.02746-0.03114-0.05539-0.04693-0.08273
		c-0.08128-0.14055-0.16376-0.27953-0.24718-0.41699c-0.02187-0.03609-0.04419-0.07153-0.06628-0.10739
		c-0.06273-0.10213-0.12598-0.20357-0.18993-0.30396c-0.02886-0.04529-0.05789-0.09036-0.08698-0.13525
		c-0.06115-0.09438-0.12283-0.18788-0.18503-0.28075c-0.02734-0.04075-0.05445-0.08179-0.08202-0.12231
		c-0.01219-0.01795-0.02414-0.03638-0.03638-0.05428c-0.07532-0.11006-0.15152-0.21896-0.22835-0.32675
		c-0.00135-0.00187-0.00262-0.00373-0.00391-0.0056c-0.09036-0.12662-0.18212-0.25132-0.27464-0.3749
		c-0.02898-0.03871-0.05835-0.0769-0.08756-0.11525c-0.06564-0.0864-0.1317-0.1721-0.19838-0.25691
		c-0.03288-0.04181-0.06576-0.08349-0.09888-0.12487c-0.0218-0.02729-0.04319-0.05515-0.06511-0.08227h0.00005
		c-0.06652-0.08232-0.13367-0.16381-0.20119-0.24461c-0.00764-0.0091-0.01534-0.01795-0.02296-0.02704
		c-0.09293-0.11082-0.18697-0.22002-0.28181-0.32805c-0.01376-0.01568-0.0274-0.03148-0.04122-0.04704
		c-0.0748-0.08458-0.15-0.16854-0.22601-0.25138c-0.01562-0.01702-0.03183-0.03335-0.04752-0.05031
		c-0.06068-0.0657-0.12225-0.13006-0.18369-0.19465c-0.05394-0.05667-0.10762-0.11362-0.16219-0.16941
		c-0.06355-0.06511-0.12808-0.12883-0.1925-0.19279c-0.04238-0.04214-0.08401-0.08535-0.12674-0.12697
		c-0.013-0.01266-0.02635-0.02484-0.03941-0.03749c-0.04256-0.04109-0.08564-0.08138-0.12849-0.12201
		c-0.0699-0.06628-0.13992-0.13227-0.21063-0.19722c-0.0461-0.04226-0.09264-0.08395-0.13909-0.12568
		c-0.03982-0.0358-0.07912-0.07241-0.11922-0.10779c-0.02961-0.02612-0.05987-0.05125-0.08965-0.07713
		c-0.04664-0.04057-0.09344-0.08086-0.1405-0.12085c-0.07078-0.06027-0.14214-0.1198-0.21378-0.17886
		c-0.0471-0.03877-0.09415-0.07765-0.14166-0.11594c-0.02192-0.01767-0.04343-0.03597-0.06541-0.05352
		c-0.0597-0.0477-0.12033-0.09398-0.1806-0.14073c-0.03464-0.02694-0.06891-0.05428-0.10371-0.08086
		c-0.11485-0.08779-0.23051-0.17437-0.34745-0.25913c-0.00292-0.00209-0.00583-0.00407-0.00874-0.00618
		c-0.02006-0.01451-0.04051-0.02845-0.06068-0.0429c-0.10075-0.0723-0.20217-0.14365-0.30449-0.21372
		c-0.04104-0.0281-0.08255-0.05562-0.12389-0.08336c-0.05094-0.03428-0.10143-0.0692-0.15279-0.1029
		c-0.033-0.02169-0.06664-0.04244-0.09981-0.06389c-0.04395-0.02845-0.08807-0.05672-0.13233-0.08471
		c-0.08657-0.05491-0.17372-0.10884-0.26134-0.16218c-0.04063-0.02471-0.08109-0.04973-0.1219-0.07416
		c-0.01667-0.00991-0.033-0.02028-0.04967-0.03019l-0.00146,0.00047l0.0014-0.00047
		c-0.09566-0.05672-0.19233-0.11205-0.28922-0.16696c-0.01614-0.00921-0.03201-0.01878-0.04821-0.02787
		c-0.11764-0.06623-0.2361-0.13117-0.35555-0.19471c-0.01183-0.0063-0.0239-0.01225-0.03574-0.01848
		c-0.04314-0.02285-0.0868-0.04483-0.13018-0.06734c-0.09152-0.04751-0.1834-0.09455-0.27604-0.14055
		c-0.05077-0.02518-0.10196-0.0499-0.15308-0.07467c-0.04694-0.02274-0.09334-0.04623-0.14056-0.06856
		c-0.03906-0.01854-0.07888-0.03597-0.11811-0.05421c-0.05614-0.02606-0.1124-0.052-0.16888-0.07754
		c-0.0864-0.03906-0.17339-0.07724-0.26065-0.11502c-0.05596-0.0242-0.11181-0.04856-0.16807-0.07229
		c-0.02209-0.00933-0.04385-0.01918-0.06599-0.02839c-0.06424-0.02676-0.12953-0.052-0.19424-0.07812
		c-0.06046-0.02437-0.12062-0.04915-0.18148-0.07293c-0.09654-0.03772-0.19401-0.07398-0.29154-0.11024
		c-0.05171-0.01924-0.10295-0.03912-0.15501-0.05795c-0.00851-0.00304-0.01691-0.00641-0.02547-0.00951
		c-0.07764-0.02792-0.15652-0.05404-0.23476-0.08109c-0.07037-0.02425-0.1402-0.04926-0.21103-0.07282
		c-0.08931-0.02967-0.17974-0.05759-0.26986-0.08604c-0.06897-0.0218-0.13741-0.04442-0.20683-0.06553
		c-0.00578-0.00175-0.01138-0.00367-0.01708-0.00542c-0.1022-0.03095-0.20573-0.05993-0.30891-0.08937
		c-0.052-0.01487-0.10336-0.03055-0.1556-0.04501c-0.1616-0.04471-0.32442-0.08768-0.48859-0.12871
		c-0.14539-0.02513-0.28968-0.04821-0.43308-0.0696c-0.04944-0.00741-0.09824-0.01347-0.14749-0.02041
		c-0.0829-0.01166-0.16621-0.02396-0.24847-0.03434c-0.01242-0.00158-0.02466-0.00286-0.03708-0.00443
		c-0.02349-0.00292-0.04675-0.00548-0.07019-0.00828c-0.118-0.01423-0.23529-0.02716-0.35194-0.0387
		c-0.0172-0.0017-0.03457-0.00362-0.0517-0.00531c-0.12634-0.01207-0.25168-0.02239-0.37631-0.03137
		c-0.02687-0.00192-0.05369-0.00378-0.08051-0.00554c-0.03365-0.00227-0.06745-0.00495-0.10098-0.007
		c-0.09164-0.00559-0.18282-0.0102-0.27364-0.01404c-0.00822-0.00035-0.01638-0.00053-0.02466-0.00088
		c-0.11864-0.00483-0.23634-0.00793-0.35346-0.00985c-0.02402-0.0004-0.04809-0.00093-0.07205-0.00122
		c-0.10418-0.00116-0.20789-0.00163-0.31084-0.00053c-0.01509,0.00018-0.02996,0.0007-0.04501,0.00093
		c-0.02524,0.00035-0.05019,0.00106-0.07532,0.00158c-0.10295,0.00198-0.20533,0.00513-0.30706,0.00951
		c-0.02302,0.00098-0.04617,0.00169-0.06914,0.0028c-0.11671,0.00559-0.23248,0.01283-0.34756,0.02151
		c-0.02554,0.00191-0.05095,0.00419-0.07643,0.00624c-0.04459,0.00367-0.08943,0.00682-0.13378,0.01096
		c-0.04996,0.00461-0.09934,0.01031-0.14895,0.01556c-0.02968,0.00309-0.05947,0.00595-0.08902,0.00927
		c-0.11502,0.01295-0.22929,0.02728-0.34255,0.04343c-0.02,0.0028-0.03971,0.00612-0.05964,0.0091
		c-0.09509,0.01399-0.18953,0.02926-0.28339,0.04553c-0.03253,0.00565-0.06494,0.01142-0.0973,0.01731
		c-0.02939,0.00536-0.05899,0.01014-0.08826,0.01574c-0.04751,0.00909-0.09427,0.01959-0.14149,0.02926
		c-0.04506,0.00921-0.09025,0.01819-0.13503,0.02798c-0.077,0.01679-0.15325,0.03486-0.22939,0.05329
		c-0.03889,0.00932-0.07812,0.01807-0.11678,0.02786c-0.10721,0.02716-0.2136,0.05585-0.31918,0.08616
		c-0.00793,0.00233-0.01603,0.00438-0.02396,0.0067c-0.10307,0.02985-0.20538,0.06116-0.30682,0.0941
		c-0.01382,0.00449-0.02757,0.00898-0.04133,0.01347c-3.58288,1.179-7.16563,2.35794-10.74851,3.53688
		c0.11414-0.03754,0.22934-0.07304,0.34552-0.10679c0.00985-0.00281,0.01977-0.00548,0.02968-0.00828
		c0.10435-0.02997,0.20958-0.05836,0.31556-0.08523c0.03964-0.01003,0.0798-0.019,0.11968-0.02857
		c0.07508-0.01813,0.15029-0.03602,0.2262-0.05258c0.04558-0.00991,0.09164-0.01907,0.13746-0.02845
		c0.07538-0.0154,0.15082-0.03055,0.22696-0.04443c0.03316-0.00606,0.06639-0.01201,0.09974-0.01778
		c0.0924-0.01603,0.18539-0.03095,0.2789-0.04484c0.02128-0.00314,0.04239-0.0067,0.06371-0.00973
		c0.11269-0.01603,0.22625-0.03026,0.34064-0.04314c0.03055-0.00344,0.06145-0.00641,0.09217-0.00962
		c0.09245-0.00968,0.18538-0.01855,0.27895-0.02618c0.02629-0.00216,0.05258-0.00449,0.07899-0.00648
		c0.11478-0.00863,0.23033-0.01585,0.34669-0.02145c0.02286-0.00106,0.04594-0.00181,0.06885-0.00281
		c0.10161-0.00431,0.20387-0.00746,0.3067-0.00944c0.02554-0.00052,0.05095-0.00123,0.0766-0.00163
		c0.1173-0.00163,0.2354-0.00175,0.35427-0.00035c0.02473,0.00029,0.04956,0.00082,0.07433,0.00128
		c0.11601,0.00192,0.23267,0.00495,0.35018,0.00979c0.00911,0.00035,0.01808,0.00053,0.02718,0.00093
		c0.12347,0.00525,0.24805,0.01248,0.37316,0.02087c0.02734,0.00187,0.05468,0.00373,0.08208,0.00571
		c0.12428,0.00898,0.24928,0.01924,0.37514,0.03125c0.01766,0.00175,0.03544,0.00373,0.05317,0.00548
		c0.11624,0.01153,0.23318,0.02442,0.35077,0.03858c0.02349,0.0028,0.04681,0.00537,0.07037,0.00828
		c0.09438,0.01177,0.18975,0.0253,0.28507,0.03871c0.04943,0.00693,0.0984,0.01306,0.14806,0.02045
		c0.14336,0.0214,0.28764,0.04448,0.43298,0.06961c0.16405,0.04104,0.32675,0.08395,0.48824,0.12867
		c0.05509,0.01516,0.10919,0.03172,0.16393,0.04739c0.10604,0.03031,0.21232,0.06034,0.31731,0.09223
		c0.07258,0.02209,0.14411,0.0457,0.21616,0.0685c0.08698,0.02752,0.17431,0.05445,0.26048,0.08307
		c0.07351,0.02443,0.14598,0.05037,0.21896,0.07561c0.08424,0.02909,0.16884,0.05759,0.25231,0.0878
		c0.05335,0.01924,0.10593,0.03964,0.15898,0.05941c0.09648,0.03585,0.19296,0.07176,0.28845,0.10907
		c0.05946,0.0232,0.11823,0.04746,0.17734,0.07125c0.08913,0.03591,0.17822,0.07188,0.26648,0.10907
		c0.05491,0.02314,0.10937,0.04694,0.16393,0.07054c0.08768,0.03795,0.17512,0.07631,0.26192,0.1156
		c0.05714,0.02582,0.11404,0.052,0.17081,0.07835c0.08552,0.03975,0.17064,0.08022,0.25535,0.12125
		c0.05224,0.02525,0.10452,0.05049,0.1564,0.07626c0.091,0.04524,0.1813,0.09153,0.27132,0.13816
		c0.04488,0.02326,0.09007,0.04605,0.13467,0.06961c0.13093,0.06937,0.26099,0.13991,0.38977,0.21243
		c0.01725,0.00968,0.03416,0.01982,0.05129,0.02962c0.11257,0.06378,0.22433,0.12878,0.33521,0.195
		c0.04185,0.02501,0.08336,0.05072,0.12505,0.07609c0.08652,0.0527,0.17268,0.10598,0.25819,0.1602
		c0.04512,0.02857,0.09007,0.05737,0.1349,0.08634c0.0836,0.0541,0.16662,0.10908,0.24922,0.16457
		c0.04215,0.02833,0.08447,0.05637,0.12644,0.08512c0.10208,0.06995,0.2034,0.14113,0.30396,0.2133
		c0.02006,0.01439,0.04046,0.02827,0.06046,0.04273c0.1198,0.08675,0.23843,0.17536,0.35608,0.26526
		c0.03491,0.02669,0.06937,0.05415,0.10412,0.08114c0.08249,0.06407,0.16463,0.12866,0.24601,0.1943
		c0.04739,0.03819,0.09433,0.07695,0.14131,0.11567c0.07159,0.05893,0.14283,0.1184,0.21354,0.17862
		c0.04752,0.04046,0.09492,0.08121,0.14207,0.12224c0.06902,0.06005,0.13758,0.12092,0.20585,0.18224
		c0.04733,0.0425,0.09479,0.085,0.14178,0.12814c0.0696,0.0639,0.13857,0.1289,0.20731,0.19412
		c0.04408,0.04175,0.08838,0.08313,0.13204,0.1254c0.05444,0.05264,0.10796,0.10662,0.16183,0.16014
		c0.06569,0.06517,0.13152,0.13024,0.1964,0.19663c0.05357,0.05486,0.10632,0.11082,0.15932,0.16651
		c0.06255,0.06564,0.12516,0.13122,0.1869,0.19803c0.09123,0.09864,0.18188,0.19809,0.27138,0.2993
		c0.01492,0.0169,0.02972,0.03399,0.04459,0.05095c0.09304,0.10593,0.18526,0.21308,0.27644,0.32175
		c0.00904,0.01073,0.0182,0.02127,0.02718,0.03206c0.08966,0.10727,0.17798,0.21645,0.26583,0.3264
		c0.03259,0.04069,0.065,0.08173,0.0973,0.12289c0.06757,0.08592,0.13454,0.17267,0.201,0.26023
		c0.02834,0.03724,0.05685,0.07427,0.08495,0.11182c0.18591,0.24828,0.36744,0.50281,0.54478,0.76357
		c0.02699,0.03975,0.05368,0.08004,0.08051,0.12009c0.0626,0.09345,0.12469,0.1876,0.1862,0.28263
		c0.02898,0.04472,0.05788,0.08949,0.08657,0.13455c0.06401,0.10051,0.12732,0.20206,0.19016,0.30426
		c0.02203,0.03585,0.04431,0.07129,0.06622,0.10732c0.08337,0.1374,0.16574,0.27621,0.24695,0.4167
		c0.0162,0.02798,0.03195,0.05655,0.04803,0.08466c0.06524,0.11379,0.12978,0.22852,0.1936,0.34441
		c0.02612,0.04745,0.05195,0.09531,0.07789,0.14306c0.05498,0.10149,0.10937,0.20369,0.16328,0.30664
		c0.02525,0.04815,0.05055,0.09625,0.0755,0.1447c0.06302,0.12219,0.12517,0.24555,0.18666,0.3699
		c0.0133,0.02687,0.02694,0.05323,0.04018,0.08022c0.07392,0.15081,0.14673,0.30337,0.21855,0.45734
		c0.01987,0.04255,0.03935,0.08575,0.05905,0.1286c0.05247,0.11402,0.10454,0.22869,0.15583,0.34441
		c0.02361,0.05323,0.0471,0.10668,0.07049,0.16026c0.04926,0.11304,0.09793,0.22695,0.1462,0.34156
		c0.02046,0.04874,0.04116,0.09713,0.06144,0.14609c0.06699,0.16172,0.13316,0.32455,0.19798,0.48935
		c0.00274,0.007,0.00537,0.01411,0.0081,0.02111c0.06215,0.15821,0.12307,0.31812,0.18317,0.4792
		c0.01942,0.052,0.03842,0.10447,0.05766,0.1567c0.04401,0.11986,0.08751,0.24041,0.13047,0.36185
		c0.02023,0.05725,0.04045,0.11455,0.06045,0.17216c0.03533,0.10166,0.06984,0.20438,0.10441,0.3071
		c0.03195,0.09491,0.06384,0.18988,0.09515,0.28571c0.03171,0.09706,0.06278,0.19506,0.0938,0.29306
		c0.03066,0.09683,0.06133,0.19366,0.09135,0.29137c0.03049,0.09933,0.06039,0.19954,0.09024,0.29981
		c0.02921,0.09812,0.05841,0.19629,0.08704,0.29539c0.02944,0.10202,0.05824,0.20498,0.08699,0.30799
		c0.02768,0.09899,0.05531,0.19804,0.08237,0.29796c0.03352,0.1237,0.06634,0.24834,0.09893,0.37344
		c0.01685,0.06483,0.03393,0.12919,0.05054,0.19437c0.04105,0.16113,0.08114,0.32372,0.12067,0.48719
		c0.00822,0.03399,0.01679,0.06745,0.02495,0.10156c0.04745,0.19861,0.09373,0.39904,0.13892,0.60098
		c0.01201,0.05357,0.02343,0.10796,0.03527,0.16171c0.03264,0.14865,0.065,0.29778,0.09648,0.44819
		c0.01422,0.06821,0.02809,0.13699,0.04214,0.20561c0.02787,0.13647,0.05533,0.27347,0.0822,0.4114
		c0.01434,0.07346,0.02856,0.14715,0.04256,0.22101c0.02681,0.14114,0.05305,0.28315,0.07881,0.4258
		c0.01212,0.0671,0.02448,0.1339,0.03638,0.20129c0.03299,0.18697,0.06512,0.37514,0.09631,0.56467
		c0.00372,0.02239,0.00763,0.04443,0.0113,0.06687c0.03474,0.21261,0.06827,0.42708,0.10079,0.6429
		c0.00951,0.06319,0.01861,0.12709,0.02794,0.19051c0.02267,0.15408,0.04494,0.30868,0.06651,0.46434
		c0.01086,0.07812,0.0214,0.1567,0.03189,0.23522c0.01965,0.14633,0.03883,0.29336,0.05749,0.44114
		c0.0099,0.07829,0.01981,0.15658,0.02943,0.23534c0.01894,0.15489,0.03714,0.31095,0.05498,0.46742
		c0.00839,0.07351,0.01714,0.1465,0.0253,0.22036c0.02437,0.22065,0.04792,0.44265,0.07019,0.66634
		c0.00081,0.00833,0.00175,0.01649,0.00262,0.02483c0.02308,0.23236,0.04483,0.46667,0.06564,0.7023
		c0.00636,0.07223,0.01224,0.14527,0.01842,0.2178c0.01393,0.16388,0.02757,0.32821,0.04045,0.49366
		c0.00753,0.09724,0.01464,0.19524,0.02187,0.29306c0.01083,0.14767,0.02145,0.29574,0.03148,0.44463
		c0.00687,0.10279,0.01353,0.20591,0.02,0.30921c0.00921,0.14645,0.01801,0.29353,0.0264,0.44119
		c0.00601,0.10529,0.0119,0.21069,0.0175,0.31656c0.00787,0.14901,0.01509,0.29895,0.02215,0.44912
		c0.00489,0.10493,0.00991,0.2097,0.01446,0.31515c0.00641,0.14994,0.01201,0.30105,0.01766,0.45221
		c0.00414,0.11111,0.00851,0.22182,0.01219,0.33358c0.00524,0.15891,0.00956,0.31918,0.01393,0.47938
		c0.00285,0.10464,0.00611,0.2087,0.00857,0.31393c0.0042,0.17915,0.00735,0.35987,0.01049,0.54059
		c0.00151,0.08791,0.00356,0.17512,0.00484,0.26344c0.00385,0.26985,0.00659,0.54134,0.00805,0.81475
		c0.00047,0.08534,0.00023,0.16947,0.00047,0.25436c0.0004,0.1687,0.00047,0.33689-0.00012,0.5038
		c-0.00029,0.08395-0.00082,0.16737-0.00134,0.2508c-0.001,0.15181-0.00233,0.30279-0.00408,0.45297
		c-0.00099,0.0836-0.00198,0.16708-0.0032,0.25015c-0.0024,0.15956-0.00537,0.31795-0.00869,0.47575
		c-0.0014,0.06821-0.00256,0.13689-0.00414,0.20475c-0.0053,0.22345-0.0113,0.44538-0.01848,0.66529
		c-0.00157,0.04955-0.00361,0.09828-0.0053,0.14761c-0.00531,0.15361-0.01073,0.30699-0.01697,0.4588
		c-0.00291,0.07124-0.00629,0.14143-0.00945,0.2122c-0.00565,0.12872-0.01131,0.25743-0.0176,0.38493
		c-0.0039,0.07888-0.00834,0.15688-0.01247,0.23523c-0.0063,0.11811-0.0126,0.23611-0.01947,0.35311
		c-0.00478,0.08179-0.00997,0.16282-0.01505,0.24403c-0.007,0.11221-0.01411,0.22437-0.02162,0.33561
		c-0.00624,0.09159-0.01277,0.18259-0.01936,0.27354c-0.00624,0.08558-0.01242,0.17128-0.01895,0.25627
		c-0.00729,0.09456-0.01492,0.18842-0.02262,0.28226c-0.00676,0.08325-0.01352,0.16662-0.02063,0.24922
		c-0.00804,0.09317-0.0165,0.1855-0.02496,0.2779c-0.00746,0.08202-0.01486,0.16428-0.02262,0.24567
		c-0.00886,0.09246-0.01818,0.18399-0.02746,0.27562c-0.00804,0.07976-0.01597,0.15973-0.02437,0.2389
		c-0.01189,0.11251-0.02431,0.22409-0.03684,0.33544c-0.00554,0.04932-0.01078,0.09911-0.01649,0.14814
		c-0.01849,0.16008-0.03754,0.31906-0.05737,0.47668c-0.00337,0.02693-0.00699,0.05334-0.01043,0.08022
		c-0.01672,0.13134-0.03376,0.2621-0.05141,0.39169c-0.00711,0.0524-0.01457,0.10412-0.02187,0.15624
		c-0.01469,0.10522-0.0295,0.21027-0.04482,0.31438c-0.00718,0.0491-0.01457,0.09782-0.02193,0.14662
		c-0.01522,0.10103-0.03072,0.20153-0.04652,0.30145c-0.00817,0.0517-0.01633,0.10336-0.02467,0.15472
		c-0.01714,0.106-0.03468,0.21116-0.05252,0.31591c-0.00677,0.03983-0.01335,0.07993-0.02023,0.11958
		c-0.0246,0.14224-0.04985,0.28343-0.07574,0.42335c-0.00507,0.02751-0.01037,0.05462-0.0155,0.08202
		c-0.02081,0.11129-0.04203,0.22194-0.06365,0.33176c-0.00887,0.04518-0.0179,0.09013-0.02689,0.13502
		c-0.01965,0.09789-0.03964,0.19506-0.05993,0.29178c-0.00833,0.03987-0.01662,0.07993-0.02507,0.11968
		c-0.02834,0.13263-0.05713,0.26443-0.08662,0.39485c-0.00332,0.0148-0.00682,0.02937-0.01019,0.04412
		c-0.02641,0.1159-0.0533,0.23074-0.08064,0.34483c-0.00898,0.03754-0.01807,0.07491-0.02716,0.11227
		c-0.02449,0.10045-0.04932,0.20014-0.0745,0.29913c-0.00742,0.02915-0.01469,0.05853-0.02216,0.0875
		c-0.03189,0.12377-0.0643,0.24637-0.09736,0.36791c-0.00729,0.02688-0.01481,0.0534-0.02216,0.08022
		c-0.02711,0.09853-0.05457,0.19624-0.08243,0.2933c-0.00903,0.03148-0.01807,0.06302-0.02717,0.09438
		c-0.03428,0.11776-0.06902,0.2347-0.10441,0.35036c-0.00524,0.01702-0.01061,0.03376-0.01586,0.05072
		c-0.03107,0.10069-0.06261,0.20042-0.09461,0.29946c-0.01015,0.03155-0.02029,0.06297-0.03055,0.09428
		c-0.03696,0.11298-0.07427,0.22526-0.1124,0.33607c-0.00186,0.00542-0.00378,0.01067-0.0056,0.01604
		c-0.03667,0.10633-0.07404,0.21138-0.11175,0.31573c-0.0109,0.0302-0.02187,0.06029-0.03289,0.09026
		c-0.03643,0.09946-0.07322,0.19809-0.11058,0.29568c-0.00374,0.00967-0.00735,0.01953-0.01102,0.02915
		c-0.04069,0.10569-0.08214,0.20998-0.12399,0.31351c-0.01102,0.02734-0.02215,0.05457-0.03329,0.08174
		c-0.03766,0.09199-0.07567,0.18322-0.1142,0.27347c-0.0056,0.01306-0.01108,0.02635-0.01667,0.03941
		c-0.04344,0.10103-0.08756,0.20072-0.13217,0.29965c-0.012,0.0267-0.02419,0.0531-0.03632,0.07969
		c-0.03615,0.07911-0.07264,0.15752-0.10953,0.23516c-0.01086,0.02297-0.02164,0.04612-0.03259,0.06892
		c-0.04582,0.09548-0.09217,0.18981-0.1391,0.28309c-0.01149,0.02279-0.02314,0.04524-0.03469,0.06786
		c-0.03748,0.07363-0.07532,0.14656-0.1135,0.21879c-0.01505,0.02856-0.0302,0.05713-0.04536,0.08546
		c-0.0425,0.07922-0.0854,0.15758-0.12872,0.23512c-0.00751,0.01347-0.01485,0.02717-0.02238,0.04051
		c-0.04967,0.08826-0.10009,0.17519-0.15093,0.26135c-0.01731,0.02926-0.0348,0.05806-0.05217,0.08709
		c-0.03679,0.06127-0.07375,0.12208-0.11111,0.18224c-0.01866,0.03008-0.03738,0.06005-0.05614,0.08984
		c-0.04017,0.0636-0.08068,0.12639-0.12149,0.18871c-0.01486,0.02274-0.02961,0.04582-0.04465,0.06844
		c-0.05503,0.08297-0.1106,0.16482-0.16685,0.2455c-0.02734,0.03923-0.05527,0.0773-0.08284,0.11595
		c-0.03492,0.04891-0.06961,0.09818-0.105,0.14616c-0.02839,0.03864-0.05742,0.07619-0.08616,0.11432
		c-0.0351,0.04646-0.06996,0.09327-0.10545,0.13892c-0.03004,0.03859-0.06059,0.07608-0.09084,0.11409
		c-0.03503,0.04385-0.06989,0.08809-0.10535,0.13116c-0.03065,0.03732-0.06185,0.07363-0.0928,0.1103
		c-0.03562,0.04226-0.07113,0.0847-0.10715,0.12616c-0.04471,0.05141-0.09012,0.1016-0.13548,0.15186
		c-0.02659,0.02944-0.05282,0.05946-0.07957,0.08844c-0.0572,0.06197-0.1152,0.12243-0.17338,0.18253
		c-0.01557,0.0161-0.03078,0.03282-0.04641,0.04874c-0.07426,0.07567-0.14929,0.14976-0.22514,0.2224
		c-0.02006,0.01929-0.04063,0.03766-0.06087,0.05672c-0.05597,0.0527-0.11204,0.10529-0.16882,0.15635
		c-0.02897,0.02605-0.05842,0.05102-0.08757,0.07666c-0.04879,0.04279-0.09753,0.0857-0.14697,0.12739
		c-0.03252,0.02739-0.06557,0.05392-0.09834,0.08086c-0.04687,0.03841-0.09374,0.07683-0.14114,0.11426
		c-0.03463,0.02734-0.06973,0.05387-0.1047,0.08068c-0.04629,0.03545-0.09264,0.07089-0.1395,0.10535
		c-0.03621,0.0267-0.07276,0.05276-0.10931,0.07881c-0.04641,0.03318-0.09299,0.06618-0.13992,0.09841
		c-0.03737,0.02559-0.07497,0.05077-0.11258,0.07578c-0.04698,0.03125-0.09421,0.06215-0.14171,0.09246
		c-0.03825,0.02442-0.07667,0.04845-0.1152,0.07229c-0.04774,0.02944-0.09584,0.05847-0.14405,0.08704
		c-0.03894,0.02303-0.07794,0.04588-0.11724,0.06832c-0.04884,0.02793-0.09811,0.05521-0.14749,0.0822
		c-0.03934,0.02151-0.07864,0.04302-0.11828,0.0639c-0.05037,0.02659-0.10114,0.05229-0.15198,0.07788
		c-0.03941,0.01982-0.07876,0.03989-0.11846,0.05911c-0.05241,0.02542-0.10535,0.04985-0.15828,0.07427
		c-0.03894,0.01797-0.07764,0.03621-0.11682,0.05357c-0.05567,0.02472-0.112,0.04828-0.16824,0.07188
		c-0.0372,0.01562-0.0741,0.03178-0.11153,0.04687c-0.06261,0.02536-0.12598,0.04932-0.18935,0.07334
		c-0.03171,0.01202-0.06313,0.02473-0.09507,0.03638c-0.09561,0.03498-0.19193,0.06867-0.2891,0.10062
		c3.58287-1.17894,7.16563-2.35788,10.7485-3.53688c0.09718-0.03194,0.19349-0.06564,0.2891-0.10062
		c0.03211-0.01173,0.06366-0.02449,0.09554-0.03661c0.06313-0.0239,0.12634-0.04774,0.18877-0.07298
		c0.03771-0.01528,0.07491-0.03149,0.11233-0.04723c0.05597-0.02356,0.11199-0.04699,0.16743-0.07159
		c0.03947-0.01749,0.07841-0.03591,0.11758-0.05399c0.05264-0.02425,0.10529-0.0485,0.15739-0.07381
		c0.03999-0.01936,0.07964-0.03953,0.11935-0.05952c0.05048-0.02541,0.10097-0.05101,0.15098-0.07736
		c0.03999-0.0211,0.0797-0.04279,0.11935-0.06448c0.04896-0.02682,0.09782-0.05387,0.14631-0.08161
		c0.03965-0.02262,0.07906-0.04572,0.11835-0.06892c0.04786-0.02832,0.09549-0.05712,0.14288-0.08633
		c0.03895-0.02407,0.07771-0.04833,0.1163-0.07299c0.04704-0.03002,0.09386-0.06068,0.14043-0.09158
		c0.03807-0.02536,0.07608-0.05078,0.11385-0.07673c0.04641-0.03188,0.09252-0.06448,0.13846-0.0973
		c0.03703-0.0264,0.07404-0.05281,0.1107-0.07986c0.04623-0.03404,0.09205-0.06902,0.13776-0.10406
		c0.03556-0.02722,0.07124-0.05422,0.10651-0.08202c0.04658-0.03678,0.09258-0.07456,0.13863-0.11228
		c0.03364-0.02757,0.06751-0.05474,0.10085-0.0829c0.04816-0.04057,0.0956-0.08237,0.14318-0.12411
		c0.03043-0.0267,0.06115-0.05281,0.09135-0.07998c0.05428-0.0488,0.10779-0.09905,0.16132-0.14936
		c0.02274-0.02139,0.04582-0.04208,0.06844-0.06372c0.07544-0.07229,0.15006-0.14597,0.22386-0.22123
		c0.01923-0.01958,0.03795-0.04005,0.05708-0.05981c0.05451-0.05648,0.10901-0.11316,0.16265-0.17127
		c0.02862-0.03101,0.0566-0.06303,0.08499-0.09444c0.04349-0.04826,0.08715-0.09643,0.13006-0.14586
		c0.00607-0.00694,0.01231-0.01353,0.01836-0.02052c0.03119-0.03609,0.06174-0.07346,0.09264-0.11007
		c0.02972-0.03533,0.05975-0.07019,0.08919-0.10605c0.03651-0.04436,0.07235-0.08983,0.10838-0.13507
		c0.02932-0.03673,0.05888-0.07305,0.08791-0.11036c0.03632-0.04668,0.072-0.0945,0.10786-0.14207
		c0.02798-0.03708,0.05625-0.07368,0.08395-0.11134c0.03708-0.05031,0.07345-0.10191,0.11001-0.15314
		c0.02576-0.03609,0.05177-0.07159,0.07729-0.10815c0.00274-0.00397,0.00561-0.00775,0.00835-0.01171
		c0.05404-0.07766,0.10732-0.15659,0.16025-0.23634c0.01359-0.02053,0.027-0.04146,0.04052-0.0621
		c0.04233-0.06459,0.0843-0.12976,0.12592-0.19564c0.01784-0.02827,0.03556-0.05672,0.05322-0.08523
		c0.03866-0.06221,0.0769-0.12498,0.1149-0.18842c0.01627-0.02717,0.03271-0.05421,0.04887-0.08162
		c0.00763-0.01295,0.01544-0.02547,0.02302-0.03841c0.04384-0.0748,0.08727-0.15053,0.13029-0.22695
		c0.00524-0.00933,0.01038-0.01894,0.01562-0.02833c0.04571-0.08162,0.09088-0.16428,0.1356-0.24771
		c0.01428-0.02664,0.02846-0.0534,0.04262-0.08022c0.03859-0.07304,0.07683-0.14674,0.11472-0.22118
		c0.01172-0.02303,0.02356-0.04576,0.03516-0.06886c0.00467-0.00932,0.0095-0.01842,0.01417-0.02775
		c0.04214-0.08412,0.08371-0.16935,0.12487-0.25522c0.01061-0.02203,0.02105-0.04442,0.03154-0.06664
		c0.03743-0.07876,0.07444-0.15828,0.11105-0.23849c0.01172-0.0256,0.02344-0.05119,0.0351-0.07696
		c0.04296-0.09532,0.08564-0.19128,0.12755-0.28864c0.00204-0.00472,0.00402-0.00961,0.00606-0.01434
		c0.00414-0.00967,0.00822-0.01953,0.01236-0.02921c0.04035-0.09426,0.08005-0.18964,0.11939-0.28583
		c0.00997-0.02449,0.02-0.04897,0.02997-0.07363c0.04267-0.10551,0.08494-0.21191,0.12645-0.3197
		c0.00204-0.0053,0.00402-0.01073,0.006-0.01604c0.02822-0.07339,0.05621-0.14714,0.08383-0.22158
		c0.01096-0.02944,0.02158-0.05946,0.03242-0.08903c0.00996-0.02721,0.01993-0.0545,0.02985-0.08189
		c0.03917-0.10832,0.078-0.21745,0.116-0.32799c0.00076-0.00209,0.00146-0.00407,0.00221-0.00618
		c0.0386-0.11228,0.07642-0.22607,0.11385-0.34058c0.00951-0.02896,0.0189-0.05806,0.02834-0.0872
		c0.01067-0.03301,0.02151-0.06564,0.03206-0.09888c0.02216-0.06966,0.04391-0.14002,0.06564-0.2105
		c0.00455-0.01464,0.00916-0.02909,0.01364-0.04379c0.0358-0.11677,0.07089-0.23488,0.10546-0.35381
		c0.00857-0.02932,0.01696-0.05882,0.02542-0.08833c0.02903-0.10091,0.0576-0.20258,0.08575-0.30513
		c0.0063-0.02291,0.01277-0.0457,0.01901-0.06874c0.00321-0.01189,0.00658-0.02354,0.0098-0.03544
		c0.03014-0.11152,0.0597-0.22415,0.0889-0.33748c0.00706-0.02728,0.01387-0.05498,0.02087-0.08237
		c0.02566-0.10069,0.0509-0.20213,0.07574-0.30425c0.00892-0.03649,0.01778-0.0731,0.02658-0.10984
		c0.02699-0.11274,0.05363-0.22631,0.07969-0.3408c0.00385-0.0169,0.00787-0.03357,0.01172-0.0506
		c0.00064-0.00298,0.00134-0.00589,0.00204-0.00887c0.02885-0.12773,0.05701-0.25686,0.0847-0.38674
		c0.00793-0.03702,0.01562-0.07439,0.02338-0.11158c0.02116-0.10061,0.04197-0.20188,0.06243-0.30384
		c0.00822-0.04116,0.01649-0.08226,0.0246-0.12359c0.02296-0.11649,0.04547-0.23383,0.06757-0.352
		c0.00396-0.02122,0.00804-0.0421,0.012-0.06339c0.00134-0.00751,0.00285-0.01487,0.0042-0.02233
		c0.02489-0.1349,0.04903-0.27113,0.07275-0.40819c0.006-0.03452,0.01172-0.06955,0.01761-0.10418
		c0.01871-0.10977,0.03713-0.22001,0.05508-0.33112c0.00799-0.04921,0.0158-0.0987,0.02361-0.14825
		c0.01591-0.10061,0.03149-0.20188,0.04681-0.30361c0.00753-0.04996,0.0151-0.0998,0.02251-0.14999
		c0.00385-0.02641,0.00793-0.05235,0.01177-0.07882c0.01102-0.07608,0.02151-0.15326,0.03225-0.22993
		c0.00739-0.0531,0.01497-0.1058,0.02226-0.15915c0.01859-0.13664,0.03661-0.2744,0.05421-0.41298
		c0.0024-0.01906,0.00502-0.03778,0.00741-0.05684c0.02-0.1595,0.03934-0.32034,0.05801-0.48235
		c0.00495-0.0425,0.00951-0.0857,0.01434-0.12837c0.01095-0.09748,0.02215-0.19472,0.03264-0.29306
		c0.00222-0.02052,0.00414-0.04145,0.0063-0.06203c0.00799-0.07532,0.0155-0.15151,0.0232-0.22735
		c0.00962-0.0952,0.01929-0.19034,0.0285-0.28642c0.00758-0.07917,0.01476-0.15915,0.02204-0.23896
		c0.00862-0.09409,0.01719-0.18812,0.02541-0.28303c0.00705-0.0822,0.01376-0.16509,0.02052-0.24788
		c0.0077-0.09415,0.01539-0.18835,0.02267-0.28326c0.00642-0.08348,0.01247-0.16754,0.0186-0.25161
		c0.00455-0.06244,0.00944-0.12417,0.01382-0.18695c0.00215-0.03119,0.00396-0.06309,0.00606-0.09433
		c0.00734-0.10773,0.01423-0.21629,0.02099-0.32495c0.0053-0.08453,0.01073-0.16889,0.01569-0.254
		c0.00665-0.11339,0.01276-0.22787,0.01883-0.34232c0.00437-0.08174,0.00891-0.16306,0.013-0.24526
		c0.00612-0.12278,0.01154-0.24683,0.01701-0.37077c0.00333-0.07555,0.00694-0.15064,0.01009-0.22666
		c0.00583-0.1437,0.01096-0.28886,0.01597-0.43408c0.00187-0.05312,0.00414-0.1054,0.00589-0.15868
		c0.00012-0.00432,0.00023-0.00869,0.00035-0.01295c0.00711-0.21996,0.01317-0.44196,0.01842-0.6654
		c0.00152-0.06507,0.00263-0.13082,0.00403-0.19612c0.00338-0.16101,0.00641-0.32255,0.0088-0.48537
		c0.00122-0.08104,0.00216-0.16265,0.00314-0.24416c0.00181-0.15192,0.00315-0.30465,0.00414-0.45815
		c0.00053-0.08249,0.00105-0.16492,0.00135-0.24788c0.00058-0.16737,0.00052-0.33596,0.00011-0.50526
		c-0.00018-0.05223,0.00024-0.10354,0-0.156C95.65241,54.8442,95.6523,54.81155,95.65212,54.77891z"/>
	<g class="st17">
		
			<linearGradient id="SVGID_4_" gradientUnits="userSpaceOnUse" x1="68.78487" y1="22.07718" x2="68.78487" y2="77.11035" gradientTransform="matrix(1 0 0 -1 0 104)">
			<stop  offset="0" style="stop-color:#00EBFB"/>
			<stop  offset="1" style="stop-color:#0096EA"/>
		</linearGradient>
		<path class="st24" d="M68.7388,27.14194c10.68094,2.67134,16.06921,13.06278,16.16476,31.17384
			c0.09426,17.95157-5.23175,25.6646-15.97711,23.14017c-0.09602-0.02257-0.19162-0.04553-0.28839-0.06995
			c-10.5531-2.80286-15.87742-13.01743-15.97309-30.6441C52.95477,33.20558,58.31268,25.33829,68.7388,27.14194z M75.44359,56.33503
			c0.15024-13.3766-1.92268-20.57038-6.21947-21.57985c-0.10121-0.02379-0.20299-0.04407-0.30665-0.06098
			c-0.05433-0.01469-0.10901-0.02851-0.16277-0.04116c-4.52501-1.06374-6.79917,5.10565-6.82407,18.50737
			c-0.02425,13.07712,2.28023,20.15921,6.91309,21.24762C73.21892,75.43592,75.41928,69.41215,75.44359,56.33503"/>
	</g>
	<g>
		
			<linearGradient id="SVGID_5_" gradientUnits="userSpaceOnUse" x1="52.66496" y1="49.59377" x2="84.90479" y2="49.59377" gradientTransform="matrix(1 0 0 -1 0 104)">
			<stop  offset="0" style="stop-color:#00EBFB"/>
			<stop  offset="1" style="stop-color:#0096EA"/>
		</linearGradient>
		<path class="st25" d="M68.7388,27.14194c10.68094,2.67134,16.06921,13.06278,16.16476,31.17384
			c0.09426,17.95157-5.23175,25.6646-15.97711,23.14017c-0.09602-0.02257-0.19162-0.04553-0.28839-0.06995
			c-10.5531-2.80286-15.87742-13.01743-15.97309-30.6441C52.95477,33.20558,58.31268,25.33829,68.7388,27.14194z M75.44359,56.33503
			c0.15024-13.3766-1.92268-20.57038-6.21947-21.57985c-0.10121-0.02379-0.20299-0.04407-0.30665-0.06098
			c-0.05433-0.01469-0.10901-0.02851-0.16277-0.04116c-4.52501-1.06374-6.79917,5.10565-6.82407,18.50737
			c-0.02425,13.07712,2.28023,20.15921,6.91309,21.24762C73.21892,75.43592,75.41928,69.41215,75.44359,56.33503"/>
	</g>
	<path class="st26" d="M57.98321,33.79851c-0.03546,0-0.07138-0.0079-0.10528-0.02457
		c-0.11834-0.05824-0.16703-0.20139-0.1088-0.31966c2.55612-5.19302,6.7461-5.3383,6.78765-5.3383
		c0.13174,0,0.23818,0.10668,0.23842,0.23841s-0.10668,0.23873-0.23834,0.2392c-0.03874,0.00007-3.93684,0.1502-6.35927,5.07154
		C58.15603,33.74959,58.07126,33.79851,57.98321,33.79851z"/>
</g>
<g>
	<g id="XMLID_2173_" class="st0">
		<g id="XMLID_2176_">
			<g id="XMLID_2183_">
				<g>
					<g>
						<g>
							
								<linearGradient id="XMLID_54_" gradientUnits="userSpaceOnUse" x1="18.98496" y1="9.75634" x2="18.98496" y2="20.92313" gradientTransform="matrix(1 0 0 -1 0 104)">
								<stop  offset="0" style="stop-color:#FFFFFF"/>
								<stop  offset="0.90514" style="stop-color:#1A1A1A"/>
							</linearGradient>
							<polygon id="XMLID_2185_" class="st27" points="28.46493,88.666 19.00556,94.15716 9.50499,88.666 19.00556,83.17484 							
								"/>
						</g>
					</g>
				</g>
				
					<linearGradient id="XMLID_55_" gradientUnits="userSpaceOnUse" x1="18.98496" y1="9.75634" x2="18.98496" y2="20.92313" gradientTransform="matrix(1 0 0 -1 0 104)">
					<stop  offset="0" style="stop-color:#00FFFB"/>
					<stop  offset="0.90514" style="stop-color:#3238C2"/>
				</linearGradient>
				<polygon id="XMLID_2184_" class="st28" points="28.46493,88.666 19.00556,94.15716 9.50499,88.666 19.00556,83.17484 				"/>
			</g>
			<g id="XMLID_2180_">
				<g>
					<g>
						<g>
							
								<linearGradient id="XMLID_56_" gradientUnits="userSpaceOnUse" x1="23.73525" y1="2.50812" x2="23.73525" y2="12.46989" gradientTransform="matrix(1 0 0 -1 0 104)">
								<stop  offset="0" style="stop-color:#FFFFFF"/>
								<stop  offset="1" style="stop-color:#1A1A1A"/>
							</linearGradient>
							<polygon id="XMLID_2182_" class="st29" points="28.46493,88.666 28.46493,94.9109 19.00556,100.40205 19.00556,94.15716 
															"/>
						</g>
					</g>
				</g>
				
					<linearGradient id="XMLID_57_" gradientUnits="userSpaceOnUse" x1="23.73525" y1="2.50812" x2="23.73525" y2="12.46989" gradientTransform="matrix(1 0 0 -1 0 104)">
					<stop  offset="0" style="stop-color:#00FFFB"/>
					<stop  offset="1" style="stop-color:#3238C2"/>
				</linearGradient>
				<polygon id="XMLID_2181_" class="st30" points="28.46493,88.666 28.46493,94.9109 19.00556,100.40205 19.00556,94.15716 				"/>
			</g>
			<g id="XMLID_2177_">
				<g>
					<g>
						<g>
							
								<linearGradient id="XMLID_58_" gradientUnits="userSpaceOnUse" x1="14.25528" y1="2.73563" x2="14.25528" y2="12.91018" gradientTransform="matrix(1 0 0 -1 0 104)">
								<stop  offset="0" style="stop-color:#FFFFFF"/>
								<stop  offset="1" style="stop-color:#1A1A1A"/>
							</linearGradient>
							<polygon id="XMLID_2179_" class="st31" points="19.00556,94.15716 19.00556,100.40205 9.50499,94.9109 9.50499,88.666 
															"/>
						</g>
					</g>
				</g>
				
					<linearGradient id="XMLID_59_" gradientUnits="userSpaceOnUse" x1="14.25528" y1="2.73563" x2="14.25528" y2="12.91018" gradientTransform="matrix(1 0 0 -1 0 104)">
					<stop  offset="0" style="stop-color:#00FFFB"/>
					<stop  offset="1" style="stop-color:#3238C2"/>
				</linearGradient>
				<polygon id="XMLID_2178_" class="st32" points="19.00556,94.15716 19.00556,100.40205 9.50499,94.9109 9.50499,88.666 				"/>
			</g>
		</g>
		<g>
			<g>
				<g>
					
						<linearGradient id="XMLID_60_" gradientUnits="userSpaceOnUse" x1="18.98496" y1="9.84285" x2="18.98496" y2="15.33401" gradientTransform="matrix(1 0 0 -1 0 104)">
						<stop  offset="0" style="stop-color:#FFFFFF"/>
						<stop  offset="1" style="stop-color:#1A1A1A"/>
					</linearGradient>
					<polygon id="XMLID_2175_" class="st33" points="19.00556,93.992 9.50499,88.66599 9.50499,88.66599 19.00556,94.15715 
						28.46493,88.66599 28.46493,88.66599 					"/>
				</g>
			</g>
		</g>
		
			<linearGradient id="XMLID_61_" gradientUnits="userSpaceOnUse" x1="18.98496" y1="9.84285" x2="18.98496" y2="15.33401" gradientTransform="matrix(1 0 0 -1 0 104)">
			<stop  offset="0" style="stop-color:#00FFFF"/>
			<stop  offset="1" style="stop-color:#45FFFF"/>
		</linearGradient>
		<polygon id="XMLID_2174_" class="st34" points="19.00556,93.992 9.50499,88.66599 9.50499,88.66599 19.00556,94.15715 
			28.46493,88.66599 28.46493,88.66599 		"/>
	</g>
	<g id="XMLID_2082_">
		<g id="XMLID_2163_">
			<g id="XMLID_2170_">
				<g>
					<g>
						<g>
							
								<linearGradient id="XMLID_62_" gradientUnits="userSpaceOnUse" x1="18.98496" y1="11.33735" x2="18.98496" y2="22.50416" gradientTransform="matrix(1 0 0 -1 0 104)">
								<stop  offset="0" style="stop-color:#FFFFFF"/>
								<stop  offset="0.90514" style="stop-color:#666666"/>
							</linearGradient>
							<polygon id="XMLID_2172_" class="st35" points="28.46493,87.08498 19.00556,92.57613 9.50499,87.08498 19.00556,81.59383 
															"/>
						</g>
					</g>
				</g>
				
					<linearGradient id="XMLID_63_" gradientUnits="userSpaceOnUse" x1="18.98496" y1="11.33735" x2="18.98496" y2="22.50416" gradientTransform="matrix(1 0 0 -1 0 104)">
					<stop  offset="0" style="stop-color:#00FFFB"/>
					<stop  offset="0.90514" style="stop-color:#3238C2"/>
				</linearGradient>
				<polygon id="XMLID_2171_" class="st36" points="28.46493,87.08498 19.00556,92.57613 9.50499,87.08498 19.00556,81.59383 				
					"/>
			</g>
			<g id="XMLID_2167_">
				<g>
					<g>
						<g>
							
								<linearGradient id="XMLID_64_" gradientUnits="userSpaceOnUse" x1="23.73525" y1="10.12255" x2="23.73525" y2="15.39819" gradientTransform="matrix(1 0 0 -1 0 104)">
								<stop  offset="0" style="stop-color:#FFFFFF"/>
								<stop  offset="1" style="stop-color:#4D4D4D"/>
							</linearGradient>
							<polygon id="XMLID_2169_" class="st37" points="28.46493,87.08498 28.46493,87.80914 19.00556,93.3003 19.00556,92.57613 
															"/>
						</g>
					</g>
				</g>
				
					<linearGradient id="XMLID_65_" gradientUnits="userSpaceOnUse" x1="23.73525" y1="10.12255" x2="23.73525" y2="15.39819" gradientTransform="matrix(1 0 0 -1 0 104)">
					<stop  offset="0" style="stop-color:#00FFFB"/>
					<stop  offset="1" style="stop-color:#3238C2"/>
				</linearGradient>
				<polygon id="XMLID_2168_" class="st38" points="28.46493,87.08498 28.46493,87.80914 19.00556,93.3003 19.00556,92.57613 				
					"/>
			</g>
			<g id="XMLID_2164_">
				<g>
					<g>
						<g>
							
								<linearGradient id="XMLID_66_" gradientUnits="userSpaceOnUse" x1="14.25528" y1="10.24303" x2="14.25528" y2="15.63138" gradientTransform="matrix(1 0 0 -1 0 104)">
								<stop  offset="0" style="stop-color:#FFFFFF"/>
								<stop  offset="0.99806" style="stop-color:#4D4D4D"/>
							</linearGradient>
							<polygon id="XMLID_2166_" class="st39" points="19.00556,92.57613 19.00556,93.3003 9.50499,87.80914 9.50499,87.08498 
															"/>
						</g>
					</g>
				</g>
				
					<linearGradient id="XMLID_67_" gradientUnits="userSpaceOnUse" x1="14.25528" y1="10.24303" x2="14.25528" y2="15.63138" gradientTransform="matrix(1 0 0 -1 0 104)">
					<stop  offset="0" style="stop-color:#00FFFB"/>
					<stop  offset="0.99806" style="stop-color:#3238C2"/>
				</linearGradient>
				<polygon id="XMLID_2165_" class="st40" points="19.00556,92.57613 19.00556,93.3003 9.50499,87.80914 9.50499,87.08498 				"/>
			</g>
		</g>
		<g>
			<g>
				<g>
					
						<linearGradient id="XMLID_68_" gradientUnits="userSpaceOnUse" x1="18.98496" y1="11.42387" x2="18.98496" y2="16.91502" gradientTransform="matrix(1 0 0 -1 0 104)">
						<stop  offset="0" style="stop-color:#FFFFFF"/>
						<stop  offset="1" style="stop-color:#1A1A1A"/>
					</linearGradient>
					<polygon id="XMLID_2162_" class="st41" points="19.00556,92.41097 9.50499,87.08498 9.50499,87.08498 19.00556,92.57613 
						28.46493,87.08498 28.46493,87.08498 					"/>
				</g>
			</g>
		</g>
		
			<linearGradient id="XMLID_69_" gradientUnits="userSpaceOnUse" x1="18.98496" y1="11.42387" x2="18.98496" y2="16.91502" gradientTransform="matrix(1 0 0 -1 0 104)">
			<stop  offset="0" style="stop-color:#00FFFF"/>
			<stop  offset="1" style="stop-color:#45FFFF"/>
		</linearGradient>
		<polygon id="XMLID_2083_" class="st42" points="19.00556,92.41097 9.50499,87.08498 9.50499,87.08498 19.00556,92.57613 
			28.46493,87.08498 28.46493,87.08498 		"/>
	</g>
</g>
<g>
	<g id="XMLID_14_" class="st0">
		<g id="XMLID_18_">
			<g id="XMLID_27_">
				<g>
					<g>
						<g>
							
								<linearGradient id="XMLID_70_" gradientUnits="userSpaceOnUse" x1="131.99248" y1="-2.80698" x2="131.99248" y2="8.35981" gradientTransform="matrix(1 0 0 -1 0 104)">
								<stop  offset="0" style="stop-color:#FFFFFF"/>
								<stop  offset="0.90514" style="stop-color:#1A1A1A"/>
							</linearGradient>
							<polygon id="XMLID_30_" class="st43" points="141.47246,101.22932 132.01308,106.72047 122.51251,101.22932 
								132.01308,95.73816 							"/>
						</g>
					</g>
				</g>
				
					<linearGradient id="XMLID_71_" gradientUnits="userSpaceOnUse" x1="131.99248" y1="-2.80698" x2="131.99248" y2="8.35981" gradientTransform="matrix(1 0 0 -1 0 104)">
					<stop  offset="0" style="stop-color:#00FFFB"/>
					<stop  offset="0.90514" style="stop-color:#3238C2"/>
				</linearGradient>
				<polygon id="XMLID_29_" class="st44" points="141.47246,101.22932 132.01308,106.72047 122.51251,101.22932 132.01308,95.73816 
									"/>
			</g>
			<g id="XMLID_23_">
				<g>
					<g>
						<g>
							
								<linearGradient id="XMLID_72_" gradientUnits="userSpaceOnUse" x1="136.74277" y1="-10.0552" x2="136.74277" y2="-0.09343" gradientTransform="matrix(1 0 0 -1 0 104)">
								<stop  offset="0" style="stop-color:#FFFFFF"/>
								<stop  offset="1" style="stop-color:#1A1A1A"/>
							</linearGradient>
							<polygon id="XMLID_26_" class="st45" points="141.47246,101.22932 141.47246,107.47421 132.01308,112.96536 
								132.01308,106.72047 							"/>
						</g>
					</g>
				</g>
				
					<linearGradient id="XMLID_73_" gradientUnits="userSpaceOnUse" x1="136.74277" y1="-10.0552" x2="136.74277" y2="-0.09343" gradientTransform="matrix(1 0 0 -1 0 104)">
					<stop  offset="0" style="stop-color:#00FFFB"/>
					<stop  offset="1" style="stop-color:#3238C2"/>
				</linearGradient>
				<polygon id="XMLID_25_" class="st46" points="141.47246,101.22932 141.47246,107.47421 132.01308,112.96536 
					132.01308,106.72047 				"/>
			</g>
			<g id="XMLID_19_">
				<g>
					<g>
						<g>
							
								<linearGradient id="XMLID_74_" gradientUnits="userSpaceOnUse" x1="127.26279" y1="-9.82769" x2="127.26279" y2="0.34686" gradientTransform="matrix(1 0 0 -1 0 104)">
								<stop  offset="0" style="stop-color:#FFFFFF"/>
								<stop  offset="1" style="stop-color:#1A1A1A"/>
							</linearGradient>
							<polygon id="XMLID_22_" class="st47" points="132.01308,106.72047 132.01308,112.96536 122.51251,107.47421 
								122.51251,101.22932 							"/>
						</g>
					</g>
				</g>
				
					<linearGradient id="XMLID_75_" gradientUnits="userSpaceOnUse" x1="127.26279" y1="-9.82769" x2="127.26279" y2="0.34686" gradientTransform="matrix(1 0 0 -1 0 104)">
					<stop  offset="0" style="stop-color:#00FFFB"/>
					<stop  offset="1" style="stop-color:#3238C2"/>
				</linearGradient>
				<polygon id="XMLID_21_" class="st48" points="132.01308,106.72047 132.01308,112.96536 122.51251,107.47421 
					122.51251,101.22932 				"/>
			</g>
		</g>
		<g>
			<g>
				<g>
					
						<linearGradient id="XMLID_76_" gradientUnits="userSpaceOnUse" x1="131.99248" y1="-2.72046" x2="131.99248" y2="2.77069" gradientTransform="matrix(1 0 0 -1 0 104)">
						<stop  offset="0" style="stop-color:#FFFFFF"/>
						<stop  offset="1" style="stop-color:#1A1A1A"/>
					</linearGradient>
					<polygon id="XMLID_17_" class="st49" points="132.01308,106.55532 122.51251,101.22931 122.51251,101.22931 
						132.01308,106.72047 141.47246,101.22931 141.47246,101.22931 					"/>
				</g>
			</g>
		</g>
		
			<linearGradient id="XMLID_77_" gradientUnits="userSpaceOnUse" x1="131.99248" y1="-2.72046" x2="131.99248" y2="2.77069" gradientTransform="matrix(1 0 0 -1 0 104)">
			<stop  offset="0" style="stop-color:#00FFFF"/>
			<stop  offset="1" style="stop-color:#45FFFF"/>
		</linearGradient>
		<polygon id="XMLID_16_" class="st50" points="132.01308,106.55532 122.51251,101.22931 122.51251,101.22931 132.01308,106.72047 
			141.47246,101.22931 141.47246,101.22931 		"/>
	</g>
	<g id="XMLID_1_">
		<g id="XMLID_4_">
			<g id="XMLID_11_">
				<g>
					<g>
						<g>
							
								<linearGradient id="XMLID_78_" gradientUnits="userSpaceOnUse" x1="131.99248" y1="-1.22597" x2="131.99248" y2="9.94085" gradientTransform="matrix(1 0 0 -1 0 104)">
								<stop  offset="0" style="stop-color:#FFFFFF"/>
								<stop  offset="0.90514" style="stop-color:#666666"/>
							</linearGradient>
							<polygon id="XMLID_13_" class="st51" points="141.47246,99.64829 132.01308,105.13945 122.51251,99.64829 
								132.01308,94.15715 							"/>
						</g>
					</g>
				</g>
				
					<linearGradient id="XMLID_79_" gradientUnits="userSpaceOnUse" x1="131.99248" y1="-1.22597" x2="131.99248" y2="9.94085" gradientTransform="matrix(1 0 0 -1 0 104)">
					<stop  offset="0" style="stop-color:#00FFFB"/>
					<stop  offset="0.90514" style="stop-color:#3238C2"/>
				</linearGradient>
				<polygon id="XMLID_12_" class="st52" points="141.47246,99.64829 132.01308,105.13945 122.51251,99.64829 132.01308,94.15715 
									"/>
			</g>
			<g id="XMLID_8_">
				<g>
					<g>
						<g>
							
								<linearGradient id="XMLID_80_" gradientUnits="userSpaceOnUse" x1="136.74277" y1="-2.44077" x2="136.74277" y2="2.83488" gradientTransform="matrix(1 0 0 -1 0 104)">
								<stop  offset="0" style="stop-color:#FFFFFF"/>
								<stop  offset="1" style="stop-color:#4D4D4D"/>
							</linearGradient>
							<polygon id="XMLID_10_" class="st53" points="141.47246,99.64829 141.47246,100.37246 132.01308,105.86362 
								132.01308,105.13945 							"/>
						</g>
					</g>
				</g>
				
					<linearGradient id="XMLID_81_" gradientUnits="userSpaceOnUse" x1="136.74277" y1="-2.44077" x2="136.74277" y2="2.83488" gradientTransform="matrix(1 0 0 -1 0 104)">
					<stop  offset="0" style="stop-color:#00FFFB"/>
					<stop  offset="1" style="stop-color:#3238C2"/>
				</linearGradient>
				<polygon id="XMLID_9_" class="st54" points="141.47246,99.64829 141.47246,100.37246 132.01308,105.86362 132.01308,105.13945 
									"/>
			</g>
			<g id="XMLID_5_">
				<g>
					<g>
						<g>
							
								<linearGradient id="XMLID_82_" gradientUnits="userSpaceOnUse" x1="127.26279" y1="-2.32029" x2="127.26279" y2="3.06807" gradientTransform="matrix(1 0 0 -1 0 104)">
								<stop  offset="0" style="stop-color:#FFFFFF"/>
								<stop  offset="0.99806" style="stop-color:#4D4D4D"/>
							</linearGradient>
							<polygon id="XMLID_7_" class="st55" points="132.01308,105.13945 132.01308,105.86362 122.51251,100.37246 
								122.51251,99.64829 							"/>
						</g>
					</g>
				</g>
				
					<linearGradient id="XMLID_83_" gradientUnits="userSpaceOnUse" x1="127.26279" y1="-2.32029" x2="127.26279" y2="3.06807" gradientTransform="matrix(1 0 0 -1 0 104)">
					<stop  offset="0" style="stop-color:#00FFFB"/>
					<stop  offset="0.99806" style="stop-color:#3238C2"/>
				</linearGradient>
				<polygon id="XMLID_6_" class="st56" points="132.01308,105.13945 132.01308,105.86362 122.51251,100.37246 122.51251,99.64829 
									"/>
			</g>
		</g>
		<g>
			<g>
				<g>
					
						<linearGradient id="XMLID_84_" gradientUnits="userSpaceOnUse" x1="131.99248" y1="-1.13944" x2="131.99248" y2="4.35171" gradientTransform="matrix(1 0 0 -1 0 104)">
						<stop  offset="0" style="stop-color:#FFFFFF"/>
						<stop  offset="1" style="stop-color:#1A1A1A"/>
					</linearGradient>
					<polygon id="XMLID_3_" class="st57" points="132.01308,104.97429 122.51251,99.64829 122.51251,99.64829 132.01308,105.13944 
						141.47246,99.64829 141.47246,99.64829 					"/>
				</g>
			</g>
		</g>
		
			<linearGradient id="XMLID_85_" gradientUnits="userSpaceOnUse" x1="131.99248" y1="-1.13944" x2="131.99248" y2="4.35171" gradientTransform="matrix(1 0 0 -1 0 104)">
			<stop  offset="0" style="stop-color:#00FFFF"/>
			<stop  offset="1" style="stop-color:#45FFFF"/>
		</linearGradient>
		<polygon id="XMLID_2_" class="st58" points="132.01308,104.97429 122.51251,99.64829 122.51251,99.64829 132.01308,105.13944 
			141.47246,99.64829 141.47246,99.64829 		"/>
	</g>
</g>
</svg>
