<svg
  width="128"
  height="128"
  viewBox="0 0 128 128"
  fill="none"
  xmlns="http://www.w3.org/2000/svg"
  >
  <path
    d="M100.806 40.4555C90.1366 33.6662 76.073 34.6361 66.8589 43.3652C64.4341 45.79 62.9792 45.79 61.0394 43.3652C48.9156 32.6963 30.4873 34.1511 20.3033 46.7599C10.1193 58.8838 12.544 77.312 25.6378 87.0111C26.6077 87.981 28.0625 88.9509 29.5174 89.4358C40.6713 95.2553 53.2801 93.8004 62.4943 84.5863C63.9491 83.1314 64.919 83.1314 66.3739 84.5863C71.7084 89.9208 78.0128 92.3456 85.2871 92.8305C97.8959 93.3155 109.05 85.0713 112.929 72.9474C116.324 60.3386 111.475 47.2449 100.806 40.4555ZM99.8357 77.797C92.5614 85.5562 79.9526 86.0412 72.1933 78.2819C66.8589 72.9474 61.5244 67.6129 56.1899 62.2784C55.22 61.3085 54.2501 60.3386 52.7952 59.8537C50.8554 59.8537 49.4005 60.3386 48.4306 62.2784C47.4607 64.2182 47.4607 65.6731 48.9156 67.6129C51.3403 70.0377 53.7651 72.4625 56.1899 74.8872C57.6447 75.8571 57.6447 76.3421 56.1899 77.797C50.8554 83.1314 44.066 84.5863 36.7917 83.1314C34.8519 82.1615 32.9121 81.1916 31.4572 80.7067C17.8785 71.0076 21.2732 51.6094 34.8519 46.275C42.6112 43.3652 49.8855 44.8201 55.7049 50.6395C61.0394 55.974 66.3739 61.3085 72.1933 66.643C74.6181 69.0678 77.0429 69.0678 78.4977 67.128C80.4376 65.1882 80.4376 62.7634 78.4977 60.8236C76.073 58.3988 73.6482 55.974 71.2234 53.5493C69.7686 52.5794 70.2535 51.6094 71.2234 50.6395C78.9827 42.8803 91.1065 42.3953 98.8658 49.6696C107.11 57.4289 107.11 70.0377 99.8357 77.797Z" fill="url(#paint0_linear_52_16)"
  />
  <defs>
    <linearGradient
      id="paint0_linear_52_16"
      x1="13.9989"
      y1="64.2711"
      x2="113.87"
      y2="64.2711"
      gradientUnits="userSpaceOnUse"
    >
      <stop
        stop-color="#0082FA" />
      <stop
        offset="1"
        stop-color="#00F2FE" />
    </linearGradient>
  </defs>
</svg>
